<svg width="20" height="20" viewBox="0 0 20 20" fill="none" xmlns="http://www.w3.org/2000/svg">
<path d="M9.23086 2.6923L8.57702 2.03846C8.38471 1.84615 8.11548 1.84615 7.92317 2.03846L3.84625 6.07692L2.1924 4.46153C2.00009 4.26923 1.73086 4.26923 1.53856 4.46153L0.884709 5.11538C0.692402 5.30769 0.692402 5.57692 0.884709 5.76923L3.15394 8.03846C3.34625 8.23076 3.57702 8.30769 3.80779 8.30769C4.03856 8.30769 4.26932 8.23076 4.46163 8.03846L9.23086 3.34615C9.38471 3.1923 9.38471 2.88461 9.23086 2.6923Z" fill="#47463C"/>
<path d="M18.6153 7.07693H10.5768C10.2307 7.07693 9.96143 6.80769 9.96143 6.46154V5.23077C9.96143 4.88462 10.2307 4.61539 10.5768 4.61539H18.6153C18.9614 4.61539 19.2307 4.88462 19.2307 5.23077V6.46154C19.2307 6.80769 18.9614 7.07693 18.6153 7.07693Z" fill="#47463C"/>
<path d="M18.6153 12.5769H3.76919C3.42304 12.5769 3.15381 12.3077 3.15381 11.9615V10.7308C3.15381 10.3846 3.42304 10.1154 3.76919 10.1154H18.6153C18.9615 10.1154 19.2307 10.3846 19.2307 10.7308V11.9615C19.2307 12.3077 18.9615 12.5769 18.6153 12.5769Z" fill="#47463C"/>
<path d="M18.6153 18.0769H3.76919C3.42304 18.0769 3.15381 17.8077 3.15381 17.4615V16.2308C3.15381 15.8846 3.42304 15.6154 3.76919 15.6154H18.6153C18.9615 15.6154 19.2307 15.8846 19.2307 16.2308V17.4615C19.2307 17.8077 18.9615 18.0769 18.6153 18.0769Z" fill="#47463C"/>
</svg>
