<svg width="19" height="18" viewBox="0 0 19 18" fill="none" xmlns="http://www.w3.org/2000/svg">
<path d="M6.66406 10.002C4.02344 10.002 1.87305 7.85352 1.87305 5.21094C1.87305 2.56836 4.02148 0.419922 6.66406 0.419922C9.30664 0.419922 11.4551 2.56836 11.4551 5.21094C11.4551 7.85352 9.30469 10.002 6.66406 10.002ZM6.66406 2.08594C4.94141 2.08594 3.53906 3.48828 3.53906 5.21094C3.53906 6.93359 4.94141 8.33594 6.66406 8.33594C8.38672 8.33594 9.78906 6.93359 9.78906 5.21094C9.78906 3.48828 8.38672 2.08594 6.66406 2.08594Z" fill="#47463C"/>
<path d="M10.6172 17.5H2.71094C1.21484 17.5 0 16.2832 0 14.7891V12.9629C0 10.4121 2.07422 8.33594 4.62695 8.33594H8.70508C11.2559 8.33594 13.332 10.4121 13.332 12.9629V14.7891C13.3281 16.2832 12.1133 17.5 10.6172 17.5ZM4.625 10.002C2.99219 10.002 1.66602 11.3301 1.66602 12.9609V14.7871C1.66602 15.3633 2.13477 15.832 2.71094 15.832H10.6172C11.1934 15.832 11.6621 15.3633 11.6621 14.7871V12.9609C11.6621 11.3281 10.334 10.002 8.70117 10.002H4.625Z" fill="#47463C"/>
<path d="M15.6152 16.666C15.1543 16.666 14.7812 16.293 14.7812 15.832C14.7812 15.3711 15.1543 14.998 15.6152 14.998C16.1914 14.998 16.6602 14.5293 16.6602 13.9531V12.127C16.6602 10.4941 15.332 9.16797 13.6992 9.16797H13.4199C13.0332 9.16797 12.6973 8.90234 12.6094 8.52539C12.5215 8.14844 12.7031 7.76172 13.0488 7.58789C14.1191 7.05469 14.7852 5.98438 14.7852 4.79297C14.7852 3.07031 13.3828 1.66797 11.6602 1.66797C11.1992 1.66797 10.8262 1.29492 10.8262 0.833984C10.8262 0.373047 11.1992 0 11.6602 0C14.3008 0 16.4512 2.14844 16.4512 4.79102C16.4512 5.91992 16.0625 6.97656 15.3789 7.81445C17.1035 8.49023 18.3281 10.1699 18.3281 12.1289V13.9551C18.3281 15.4512 17.1113 16.666 15.6152 16.666Z" fill="#47463C"/>
</svg>
