<svg width="290" height="109" viewBox="0 0 290 109" fill="none" xmlns="http://www.w3.org/2000/svg">
<g clip-path="url(#clip0_5_2162)">
<path d="M78.6453 26.1672L89.948 21.4105L94.7959 31.3488L82.9184 36.1967L78.6453 26.1672Z" fill="#FFB6B6"/>
<path opacity="0.1" d="M78.6453 26.1672L89.948 21.4105L94.7959 31.3488L82.9184 36.1967L78.6453 26.1672Z" fill="black"/>
<path d="M80.2521 22.38L91.4024 35.2271C91.4024 35.2271 83.6457 59.7093 75.889 61.8909C68.1322 64.0725 53.8308 74.738 53.8308 74.738L35.8933 63.1029L44.6196 50.2558C44.6196 50.2558 65.7083 21.4104 71.2834 21.4104C76.8586 21.4104 80.2521 22.38 80.2521 22.38Z" fill="#8012DC"/>
<path d="M65.1871 106.129H39.2311L37.5901 103.935L30.8902 94.9782L29.3486 92.9178C29.3486 92.9178 23.531 82.2523 24.743 72.5564C25.955 62.8605 38.5597 60.6789 38.5597 60.6789H39.0784L54.5095 74.2386L53.5884 86.8579L58.4751 94.9782L65.1871 106.129Z" fill="#2F2E41"/>
<path d="M44.5469 106.129H37.5901V95.8266L44.5469 106.129Z" fill="#2F2E41"/>
<path d="M235.781 34.0717L238.375 50.2567L221.982 50.4681V36.3967L235.781 34.0717Z" fill="#A0616A"/>
<path d="M274.83 90.489L273.964 94.9782L271.817 106.129H228.672C229.009 103.629 229.47 100.032 229.962 96.149C230.01 95.7611 230.061 95.3709 230.11 94.9782C231.344 85.2168 232.694 74.1707 232.694 74.1707L238.366 74.8592L249.371 76.1924L253.855 76.7353L265.863 78.1922C271.851 78.9169 275.969 84.5648 274.83 90.489Z" fill="#F2F2F2"/>
<path d="M255.653 106.129H232.252C232.609 105.709 232.81 105.467 232.81 105.467L239.825 104.308L254.279 101.923C254.279 101.923 254.938 103.627 255.653 106.129Z" fill="#2F2E41"/>
<path d="M223.461 106.129H188.122C188.473 105.43 188.837 104.73 189.21 104.032C189.709 103.099 190.243 102.267 190.807 101.528C191.183 101.036 191.571 100.585 191.971 100.173C193.146 98.9632 194.426 98.0833 195.774 97.4798C200.586 95.3151 206.255 96.6411 211.084 98.7984C212.897 99.608 214.591 100.534 216.077 101.436C218.695 103.026 220.671 104.543 221.512 105.217C221.803 105.447 221.958 105.581 221.958 105.581L223.461 106.129Z" fill="#2F2E41"/>
<path d="M195.425 106.129H190.412L191.733 104.594L192.48 103.726L192.8 103.986L195.425 106.129Z" fill="#FFB6B6"/>
<path d="M257.365 106.129H214.199L216.077 101.436L218.659 94.9782L219.956 91.7349L218.884 87.1754C218.884 87.1754 218.356 86.8021 217.551 86.1307C214.683 83.7552 208.301 77.6371 209.768 71.3541C211.435 64.2034 213.53 50.2679 213.973 47.2646C214.029 46.8889 214.058 46.6853 214.058 46.6853L220.288 45.1582L220.494 45.1073L221.163 44.9424H237.849L250.122 53.2543L250.12 53.3415L249.371 76.1924L249.051 85.9683C249.051 85.9683 248.665 87.379 248.757 89.5703C248.818 91.0732 249.102 92.9421 249.887 94.9782C250.718 97.1428 252.117 99.4941 254.412 101.79C256.146 103.523 256.987 104.982 257.365 106.129Z" fill="#8012DC"/>
<path d="M253.855 76.7353C253.445 80.095 253.053 82.4826 253.053 82.4826L248.757 89.5703L245.48 94.9782L239.825 104.308L238.996 105.678L238.405 106.129H220.664L221.512 105.217L229.962 96.149L231.055 94.9782L232.827 93.0754L238.366 74.8592L244.894 53.39C244.894 53.39 247.538 52.4689 250.12 53.3415C251.477 53.7997 252.82 54.7547 253.744 56.6066C255.511 60.1408 254.65 70.2488 253.855 76.7353Z" fill="#8012DC"/>
<path d="M222.646 76.1488L217.551 86.1307L213.035 94.9782L211.084 98.7984L210.315 100.306L203.729 106.129H188.817L191.275 103.074L192.189 101.935L195.774 97.4798L197.786 94.9782L203.247 88.1862L204.704 57.2518C204.945 52.1211 208.855 47.9735 213.943 47.2697C213.953 47.2682 213.964 47.2665 213.973 47.2646C215.626 46.9325 218.254 46.8356 220.288 48.8014C220.358 48.8669 220.426 48.9372 220.494 49.0099C220.835 49.3711 221.158 49.7952 221.454 50.2921C221.483 50.3406 221.512 50.3916 221.538 50.4425C221.623 50.5976 221.706 50.7673 221.781 50.9491C224.377 56.9945 222.646 76.1488 222.646 76.1488Z" fill="#8012DC"/>
<path d="M227.093 41.2753C233.602 41.2753 238.878 35.9987 238.878 29.4897C238.878 22.9807 233.602 17.7042 227.093 17.7042C220.584 17.7042 215.307 22.9807 215.307 29.4897C215.307 35.9987 220.584 41.2753 227.093 41.2753Z" fill="#A0616A"/>
<path d="M231.979 34.1233C231.979 34.1233 230.758 30.7572 230.065 29.0105C229.372 27.2638 229.824 24.9972 229.824 24.9972C229.824 24.9972 220.579 22.9565 216.959 24.9791C213.338 27.0018 213.095 16.8284 216.769 14.0596C216.769 14.0596 217.753 15.7697 217.371 16.2613L216.989 16.753C216.989 16.753 219.77 10.8726 224.465 10.5782C224.465 10.5782 226.691 12.3539 225.852 12.9401C225.013 13.5262 232.036 9.6267 233.257 12.9928C233.257 12.9928 237.735 13.7905 236.862 15.3199L236.936 16.3754C236.936 16.3754 240.994 15.954 240.705 18.8297C240.705 18.8297 239.34 18.5577 238.466 19.1407C237.593 19.7236 240.543 22.4879 240.543 22.4879C240.543 22.4879 242.317 34.007 236.167 37.3235C236.167 37.3235 237.165 32.0814 234.818 32.9384C232.471 33.7953 231.979 34.1233 231.979 34.1233Z" fill="#2F2E41"/>
<path d="M282.919 108.972H7.08069C3.17638 108.972 0 105.796 0 101.892C0 97.9873 3.17638 94.8109 7.08069 94.8109H282.919C286.824 94.8109 290 97.9873 290 101.892C290 105.796 286.824 108.972 282.919 108.972Z" fill="#E6E6E6"/>
<path d="M273.512 73.2283L272.976 98.2543C272.924 100.677 270.945 102.614 268.522 102.614H222.485C220.119 102.614 218.166 100.764 218.037 98.4021L216.669 73.376C216.529 70.824 218.561 68.678 221.117 68.678H269.058C271.556 68.678 273.565 70.7312 273.512 73.2283Z" fill="#3F3D56"/>
<path d="M99.1592 32.2082C105.242 32.2082 110.174 27.2769 110.174 21.1938C110.174 15.1108 105.242 10.1794 99.1592 10.1794C93.0761 10.1794 88.1448 15.1108 88.1448 21.1938C88.1448 27.2769 93.0761 32.2082 99.1592 32.2082Z" fill="#FFB6B6"/>
<path d="M80.7368 50.0134L81.9488 63.1029L90.1903 96.3114L83.0702 98.8069L71.0409 62.6181L69.3794 48.0742L80.7368 50.0134Z" fill="#FFB6B6"/>
<path d="M77.4584 73.2283L76.9221 98.2543C76.8702 100.677 74.8915 102.614 72.4683 102.614H26.4317C24.0659 102.614 22.1127 100.764 21.9835 98.4021L20.6154 73.376C20.4759 70.824 22.5077 68.678 25.0636 68.678H73.0046C75.5023 68.678 77.5119 70.7312 77.4584 73.2283Z" fill="#3F3D56"/>
<path d="M91.5026 102.783C96.3067 102.783 100.201 101.06 100.201 98.9354C100.201 96.8105 96.3067 95.088 91.5026 95.088C86.6985 95.088 82.804 96.8105 82.804 98.9354C82.804 101.06 86.6985 102.783 91.5026 102.783Z" fill="#FFB6B6"/>
<path d="M63.6477 52.0146L68.6169 25.5312C68.6169 25.5312 82.4335 23.592 82.9183 28.1976C83.4031 32.8032 82.5719 55.3112 82.5719 55.3112L63.6477 52.0146Z" fill="#8012DC"/>
<path d="M94.7127 22.9257C94.7127 22.9257 101.526 20.4939 104.4 19.1856C107.274 17.8772 112.984 27.0031 113.111 22.1834C113.238 17.3637 111.265 15.3425 111.265 15.3425C111.265 15.3425 110.773 4.79879 100.15 6.117C100.15 6.117 102.486 0.841852 94.8168 0.0261465C87.1471 -0.789559 75.215 17.7315 76.2836 20.4994C77.3523 23.2672 78.6333 25.5555 75.6015 28.515C72.5698 31.4745 66.8928 48.1769 71.2121 52.6714C75.5314 57.166 75.8148 59.1163 72.8554 61.9125C69.896 64.7086 62.9008 70.7885 70.4642 71.844C78.0277 72.8995 69.7723 72.1111 75.4109 67.1513C81.0496 62.1915 89.2777 62.3941 86.2054 54.4364C83.1332 46.4788 88.4708 35.0756 87.8029 33.3457C87.135 31.6158 89.2993 20.6307 89.2993 20.6307C89.2993 20.6307 94.3361 19.8906 94.7127 22.9257Z" fill="#2F2E41"/>
<path d="M185.314 74.2667C179.876 93.8308 157.781 105.737 135.964 100.858C114.156 95.9809 100.88 76.1646 106.321 56.6017C111.757 37.0353 133.852 25.1277 155.663 30.0053C177.478 34.8829 190.753 54.7015 185.314 74.2667Z" fill="#F7931A"/>
<path d="M163.771 60.2296C164.581 55.3703 160.456 52.758 154.815 51.0154L156.645 44.4327L152.177 43.4342L150.396 49.8433C149.221 49.5808 148.015 49.3332 146.816 49.0878L148.61 42.6365L144.145 41.6379L142.314 48.2182C141.342 48.0196 140.387 47.8233 139.461 47.6168L139.466 47.5962L133.305 46.2164L132.116 50.496C132.116 50.496 135.431 51.1773 135.361 51.2196C137.171 51.6247 137.498 52.6986 137.443 53.55L135.358 61.049C135.483 61.0775 135.645 61.1186 135.823 61.1825C135.674 61.1494 135.515 61.1129 135.351 61.0775L132.429 71.5825C132.208 72.0755 131.647 72.815 130.382 72.5343C130.426 72.5925 127.134 71.8074 127.134 71.8074L124.916 76.394L130.73 77.6938C131.812 77.9369 132.872 78.1914 133.915 78.4311L132.066 85.089L136.529 86.0876L138.36 79.5004C139.579 79.7971 140.763 80.071 141.921 80.329L140.096 86.8853L144.564 87.8839L146.413 81.2385C154.031 82.5315 159.76 82.01 162.171 75.8302C164.114 70.8545 162.075 67.9843 158.066 66.1126C160.985 65.5089 163.184 63.7869 163.771 60.2296ZM153.563 73.0673C152.182 78.0431 142.841 75.3532 139.812 74.6787L142.266 65.8582C145.294 66.536 155.006 67.8782 153.563 73.0673ZM154.945 60.1577C153.685 64.6838 145.91 62.3842 143.388 61.8205L145.612 53.8205C148.134 54.3842 156.257 55.4364 154.945 60.1577Z" fill="white"/>
</g>
<defs>
<clipPath id="clip0_5_2162">
<rect width="290" height="108.972" fill="white"/>
</clipPath>
</defs>
</svg>
