<svg width="204" height="190" viewBox="0 0 204 190" fill="none" xmlns="http://www.w3.org/2000/svg">
<g clip-path="url(#clip0_5_2099)">
<path d="M104.412 187.985C103.42 187.985 102.419 187.969 101.436 187.938L101.458 187.224C102.87 187.268 104.31 187.281 105.729 187.261L105.738 187.976C105.297 187.982 104.855 187.985 104.412 187.985ZM110.039 187.819L109.997 187.106C111.411 187.022 112.843 186.905 114.253 186.757L114.328 187.468C112.907 187.617 111.464 187.735 110.039 187.819ZM97.1389 187.708C95.7132 187.598 94.2725 187.455 92.8565 187.282L92.9438 186.572C94.3489 186.744 95.7784 186.887 97.1933 186.995L97.1389 187.708ZM118.596 186.922L118.489 186.215C119.894 186.002 121.309 185.755 122.695 185.479L122.834 186.18C121.438 186.458 120.012 186.707 118.596 186.922ZM88.5988 186.66C87.1904 186.422 85.7687 186.147 84.3734 185.844L84.525 185.146C85.9097 185.447 87.3204 185.719 88.7182 185.955L88.5988 186.66ZM127.035 185.244L126.863 184.551C128.242 184.21 129.629 183.833 130.985 183.431L131.188 184.116C129.822 184.521 128.424 184.901 127.035 185.244ZM80.1903 184.835C78.8088 184.467 77.4185 184.063 76.058 183.633L76.2734 182.951C77.6235 183.378 79.0031 183.779 80.3739 184.144L80.1903 184.835ZM135.284 182.797L135.05 182.122C136.388 181.657 137.734 181.154 139.05 180.627L139.316 181.291C137.989 181.822 136.633 182.328 135.284 182.797ZM71.975 182.237C70.6332 181.744 69.2831 181.212 67.9624 180.656L68.2399 179.997C69.5504 180.549 70.8901 181.077 72.2217 181.567L71.975 182.237ZM143.264 179.604L142.968 178.953C144.253 178.37 145.545 177.746 146.807 177.101L147.133 177.738C145.861 178.388 144.559 179.016 143.264 179.604ZM64.0282 178.891C62.7384 178.277 61.4438 177.623 60.1807 176.948L60.5175 176.318C61.7712 176.988 63.0557 177.636 64.3357 178.246L64.0282 178.891ZM150.912 175.695L150.558 175.074C151.79 174.371 153.021 173.632 154.214 172.877L154.596 173.481C153.393 174.242 152.154 174.987 150.912 175.695ZM56.4276 174.831C55.2009 174.101 53.9724 173.331 52.7765 172.544L53.1698 171.947C54.3564 172.729 55.5755 173.492 56.7931 174.216L56.4276 174.831ZM158.175 171.1L157.766 170.514C158.926 169.703 160.085 168.854 161.208 167.991L161.644 168.558C160.512 169.428 159.345 170.283 158.175 171.1ZM49.2347 170.093C48.0811 169.255 46.9287 168.378 45.8092 167.484L46.2552 166.925C47.3661 167.812 48.5098 168.683 49.6546 169.515L49.2347 170.093ZM164.993 165.86L164.532 165.313C165.614 164.401 166.69 163.449 167.732 162.486L168.217 163.011C167.168 163.982 166.083 164.94 164.993 165.86ZM42.5069 164.721C41.4325 163.78 40.365 162.802 39.3344 161.812L39.8293 161.296C40.8522 162.279 41.9115 163.25 42.9777 164.184L42.5069 164.721ZM171.309 160.018L170.8 159.516C171.797 158.505 172.784 157.46 173.731 156.408L174.262 156.886C173.307 157.946 172.314 159 171.309 160.018ZM36.2984 158.763C35.3126 157.726 34.339 156.655 33.4047 155.578L33.9446 155.11C34.8718 156.178 35.8378 157.241 36.8163 158.27L36.2984 158.763ZM177.07 153.623L176.518 153.17C177.419 152.074 178.306 150.942 179.155 149.807L179.727 150.235C178.872 151.379 177.978 152.519 177.07 153.623ZM30.6596 152.267C29.7743 151.148 28.9027 149.993 28.0687 148.834L28.6488 148.417C29.4764 149.567 30.3415 150.713 31.2201 151.823L30.6596 152.267ZM182.227 146.728L181.635 146.327C182.433 145.153 183.213 143.945 183.956 142.736L184.565 143.11C183.816 144.328 183.03 145.546 182.227 146.728ZM25.6379 145.288C24.859 144.094 24.0968 142.866 23.3721 141.636L23.9877 141.273C24.707 142.493 25.4635 143.713 26.2364 144.897L25.6379 145.288ZM186.735 139.387L186.11 139.042C186.796 137.8 187.463 136.525 188.092 135.251L188.733 135.568C188.099 136.851 187.427 138.136 186.735 139.387ZM21.2761 137.885C20.6095 136.625 19.9632 135.332 19.355 134.043L20.0014 133.738C20.605 135.017 21.2463 136.3 21.9078 137.55L21.2761 137.885ZM190.552 131.66L189.898 131.373C190.467 130.073 191.014 128.74 191.523 127.414L192.191 127.67C191.678 129.007 191.126 130.349 190.552 131.66ZM17.6125 130.118C17.0646 128.803 16.5399 127.458 16.053 126.119L16.7248 125.874C17.2079 127.203 17.7286 128.538 18.2722 129.843L17.6125 130.118ZM193.643 123.608L192.965 123.383C193.411 122.039 193.832 120.665 194.216 119.3L194.904 119.493C194.517 120.869 194.092 122.254 193.643 123.608ZM14.6761 122.042C14.2509 120.679 13.8513 119.288 13.4885 117.905L14.1798 117.724C14.5398 119.096 14.9365 120.477 15.3584 121.829L14.6761 122.042ZM195.973 115.325L195.277 115.163C195.597 113.785 195.889 112.378 196.146 110.982L196.849 111.111C196.59 112.519 196.295 113.936 195.973 115.325ZM12.493 113.718C12.195 112.322 11.9252 110.9 11.6914 109.491L12.3964 109.373C12.6286 110.772 12.8963 112.184 13.1921 113.569L12.493 113.718ZM197.53 106.862L196.822 106.765C197.014 105.366 197.176 103.938 197.305 102.523L198.017 102.587C197.887 104.014 197.724 105.452 197.53 106.862ZM11.0844 105.23C10.9159 103.816 10.7775 102.375 10.673 100.947L11.386 100.895C11.4895 102.312 11.627 103.742 11.7943 105.146L11.0844 105.23ZM198.308 98.2939L197.594 98.2618C197.657 96.8456 197.689 95.409 197.689 93.9924H198.404C198.404 95.4199 198.372 96.8672 198.308 98.2939ZM10.4564 96.6494C10.432 95.773 10.4196 94.8789 10.4194 93.9924C10.4194 93.4424 10.4241 92.8934 10.4336 92.3454L11.1483 92.358C11.1389 92.9017 11.1342 93.4466 11.1342 93.9924C11.1344 94.8723 11.1468 95.7598 11.1709 96.6299L10.4564 96.6494ZM197.684 92.9953C197.67 91.5781 197.622 90.1418 197.544 88.7259L198.257 88.6861C198.336 90.1128 198.384 91.56 198.399 92.9876L197.684 92.9953ZM11.318 88.0908L10.6046 88.0462C10.6938 86.618 10.817 85.1756 10.9704 83.7588L11.681 83.8357C11.5286 85.2419 11.4067 86.6733 11.318 88.0908ZM197.209 84.4688C197.067 83.0597 196.889 81.634 196.682 80.231L197.389 80.1266C197.597 81.5403 197.776 82.9768 197.921 84.3966L197.209 84.4688ZM12.2375 79.6019L11.5311 79.4927C11.7501 78.0786 12.0045 76.6535 12.2874 75.2562L12.9878 75.3979C12.7072 76.7845 12.4547 78.1989 12.2375 79.6019ZM195.96 76.0225C195.688 74.6282 195.38 73.2246 195.046 71.8509L195.74 71.682C196.077 73.0662 196.387 74.4805 196.662 75.8853L195.96 76.0225ZM13.9305 71.233L13.2372 71.0592C13.5843 69.6749 13.9687 68.279 14.3799 66.9102L15.0643 67.1157C14.6564 68.4741 14.275 69.8593 13.9305 71.233ZM193.94 67.7258C193.542 66.3648 193.106 64.9958 192.646 63.6563L193.321 63.4239C193.786 64.7737 194.225 66.1535 194.626 67.5248L193.94 67.7258ZM16.3911 63.044L15.7168 62.807C16.1918 61.4558 16.7047 60.0982 17.2411 58.7718L17.9039 59.0398C17.3714 60.3559 16.8624 61.7033 16.3911 63.044ZM191.165 59.6508C190.643 58.3354 190.085 57.0152 189.505 55.7269L190.157 55.4333C190.741 56.7317 191.304 58.0619 191.829 59.3873L191.165 59.6508ZM19.5991 55.111L18.9496 54.8126C19.5466 53.5126 20.182 52.2088 20.8381 50.9377L21.4733 51.2654C20.8221 52.527 20.1916 53.8207 19.5991 55.111ZM187.666 51.8818C187.027 50.62 186.349 49.3555 185.652 48.124L186.274 47.7719C186.976 49.013 187.659 50.287 188.304 51.5586L187.666 51.8818ZM23.5221 47.5112L22.9027 47.1545C23.6157 45.9164 24.3676 44.677 25.1377 43.4712L25.7401 43.8558C24.976 45.0526 24.2296 46.2825 23.5221 47.5112ZM183.467 44.4608C182.712 43.2585 181.921 42.0607 181.116 40.9006L181.704 40.4933C182.514 41.6623 183.311 42.8692 184.072 44.0808L183.467 44.4608ZM28.1228 40.3067L27.5386 39.8949C28.3626 38.7262 29.2241 37.5614 30.0998 36.4327L30.6645 36.8707C29.7956 37.9911 28.9404 39.147 28.1228 40.3067ZM178.605 37.4504C177.744 36.3223 176.847 35.2007 175.938 34.1171L176.486 33.6579C177.401 34.75 178.305 35.8799 179.173 37.0166L178.605 37.4504ZM33.3597 33.5553L32.8156 33.0918C33.7403 32.0057 34.7041 30.9247 35.6801 29.8787L36.2026 30.3662C35.2341 31.4044 34.2776 32.4774 33.3597 33.5553ZM173.122 30.9077C172.162 29.8626 171.166 28.8268 170.162 27.8293L170.666 27.3222C171.678 28.3275 172.681 29.371 173.649 30.424L173.122 30.9077ZM39.1867 27.311L38.687 26.8001C39.709 25.8002 40.7667 24.8116 41.8303 23.8619L42.3064 24.3952C41.2508 25.3376 40.2011 26.3186 39.1867 27.311ZM167.066 24.888C166.013 23.9337 164.927 22.9924 163.837 22.0904L164.292 21.5396C165.391 22.4485 166.486 23.3969 167.546 24.3586L167.066 24.888ZM45.5548 21.6244L45.1035 21.0702C46.209 20.1699 47.3515 19.282 48.4994 18.4312L48.9252 19.0053C47.7858 19.8499 46.6519 20.731 45.5548 21.6244ZM160.483 19.4419C159.348 18.587 158.18 17.7482 157.011 16.9488L157.415 16.3589C158.592 17.1643 159.769 18.0094 160.913 18.8709L160.483 19.4419ZM52.4102 16.5434L52.0113 15.9504C53.1944 15.1543 54.4125 14.3748 55.6317 13.633L56.0031 14.2438C54.7932 14.9798 53.5844 15.7536 52.4102 16.5434ZM153.429 14.6167C152.221 13.8691 150.98 13.1404 149.742 12.4504L150.09 11.826C151.338 12.5212 152.587 13.2557 153.805 14.0087L153.429 14.6167ZM59.6965 12.1113L59.3534 11.4841C60.6051 10.7992 61.8886 10.1347 63.1681 9.50876L63.4822 10.1509C62.2125 10.772 60.9388 11.4314 59.6965 12.1113ZM145.959 10.4553C144.687 9.82164 143.384 9.20947 142.086 8.63588L142.375 7.98219C143.683 8.56015 144.996 9.17702 146.278 9.81554L145.959 10.4553ZM67.3524 8.36663L67.0683 7.71084C68.3764 7.14387 69.7145 6.60012 71.0452 6.09457L71.299 6.76292C69.9783 7.26444 68.6505 7.80402 67.3524 8.36663ZM138.133 6.99624C136.81 6.48302 135.455 5.99336 134.107 5.54106L134.335 4.86328C135.693 5.31926 137.058 5.81258 138.391 6.32999L138.133 6.99624ZM75.3251 5.33914L75.1025 4.65997C76.4608 4.21464 77.8467 3.7953 79.2215 3.41401L79.4125 4.1026C78.0482 4.48109 76.673 4.89711 75.3251 5.33914ZM130.028 4.27641C128.665 3.88779 127.274 3.52586 125.895 3.20076L126.059 2.50518C127.449 2.83273 128.85 3.19745 130.224 3.58886L130.028 4.27641ZM83.5528 3.05574L83.3937 2.35895C84.7863 2.04082 86.2048 1.75098 87.6097 1.4976L87.7368 2.20085C86.3423 2.45248 84.9347 2.74006 83.5528 3.05574ZM121.717 2.31707C120.325 2.05584 118.908 1.8234 117.503 1.6262L117.602 0.918416C119.018 1.11718 120.446 1.35136 121.849 1.61451L121.717 2.31707ZM91.9558 1.5393L91.8612 0.830811C93.2761 0.641996 94.715 0.483199 96.1379 0.359308L96.2001 1.07129C94.788 1.19447 93.3602 1.35189 91.9558 1.5393ZM113.262 1.12922C111.854 0.996592 110.421 0.894331 109.002 0.82575L109.037 0.111686C110.466 0.18095 111.91 0.283929 113.329 0.417587L113.262 1.12922ZM100.462 0.797131L100.432 0.0830675C101.746 0.0282694 103.085 0.000349498 104.412 0L104.735 0.000509052L104.733 0.715285L104.412 0.714757C103.095 0.715106 101.766 0.74286 100.462 0.797131Z" fill="#E6E6E6"/>
<path d="M104.637 187.497V148.412C104.637 147.864 104.855 147.339 105.242 146.952C105.629 146.565 106.154 146.347 106.702 146.347H111.391C111.939 146.347 112.464 146.565 112.851 146.952C113.238 147.339 113.456 147.864 113.457 148.412V187.497C113.456 188.044 113.238 188.569 112.851 188.956C112.464 189.344 111.939 189.561 111.391 189.562H106.702C106.154 189.561 105.629 189.344 105.242 188.956C104.855 188.569 104.637 188.044 104.637 187.497Z" fill="#2F2E41"/>
<path d="M95.3615 187.497V148.412C95.3621 147.864 95.5799 147.339 95.967 146.952C96.3542 146.565 96.8791 146.347 97.4267 146.347H102.116C102.664 146.347 103.189 146.565 103.576 146.952C103.963 147.339 104.181 147.864 104.181 148.412V187.497C104.181 188.044 103.963 188.569 103.576 188.956C103.189 189.344 102.664 189.561 102.116 189.562H97.4267C96.8791 189.561 96.3542 189.344 95.967 188.956C95.5799 188.569 95.3621 188.044 95.3615 187.497Z" fill="#2F2E41"/>
<path d="M113.903 135.508H94.9155C93.8627 135.508 93.0092 136.362 93.0092 137.415V158.863C93.0092 159.916 93.8627 160.769 94.9155 160.769H113.903C114.955 160.769 115.809 159.916 115.809 158.863V137.415C115.809 136.362 114.955 135.508 113.903 135.508Z" fill="#2F2E41"/>
<path d="M72.4888 74.1018C72.4888 74.1018 62.9066 78.5532 54.7979 81.5053C49.766 70.1463 42.5168 70.5714 42.5168 70.5714L38.1219 73.5976L38.9144 78.1365L38.6983 85.5574L37.5455 89.448L39.1997 89.747L40.1342 89.9164L40.2751 89.789C40.0419 90.7129 39.9476 91.6664 39.9952 92.6181L81.5668 86.1339C81.5668 86.1339 80.1258 79.4334 72.4888 74.1018Z" fill="#E6E6E6"/>
<path d="M60.213 132.525L63.0003 136.297C63.626 137.143 64.8197 137.322 65.6664 136.697L97.0986 113.466C97.9453 112.841 98.1244 111.647 97.4986 110.8L94.7114 107.029C94.0856 106.182 92.892 106.003 92.0453 106.629L60.6131 129.859C59.7664 130.485 59.5873 131.679 60.213 132.525Z" fill="#8012DC"/>
<path d="M113.772 105.748L109.63 107.946C108.7 108.44 108.346 109.594 108.84 110.524L127.161 145.048C127.655 145.978 128.809 146.332 129.739 145.839L133.881 143.64C134.811 143.147 135.165 141.993 134.671 141.063L116.35 106.538C115.856 105.608 114.702 105.254 113.772 105.748Z" fill="#8012DC"/>
<path d="M125.385 121.07L118.619 125.555C117.586 126.104 116.347 125.795 115.854 124.865L108.383 110.786C107.889 109.856 108.327 108.657 109.361 108.108L113.966 105.665C114.999 105.116 116.238 105.425 116.731 106.355L126.363 118.393C126.857 119.323 126.419 120.522 125.385 121.07Z" fill="#CCCCCC"/>
<path d="M79.2827 116.946L83.6799 122.786C84.0259 123.154 84.5042 123.37 85.0095 123.386C85.5149 123.402 86.0059 123.217 86.3745 122.871L97.9958 111.963C98.3644 111.617 98.5805 111.139 98.5965 110.633C98.6125 110.128 98.4271 109.637 98.0811 109.268L94.8717 105.849C94.5257 105.48 94.0474 105.264 93.5421 105.248C93.0367 105.232 92.5458 105.418 92.1771 105.764L79.368 114.251C78.9994 114.597 78.7833 115.076 78.7673 115.581C78.7513 116.086 78.9367 116.577 79.2827 116.946Z" fill="#CCCCCC"/>
<path d="M115.063 105.186H93.7554C92.7025 105.186 91.849 106.04 91.849 107.092V152.361C91.849 153.414 92.7025 154.267 93.7554 154.267H115.063C116.116 154.267 116.969 153.414 116.969 152.361V107.092C116.969 106.04 116.116 105.186 115.063 105.186Z" fill="#CCCCCC"/>
<path d="M104.285 102.232C113.676 102.232 121.289 94.6187 121.289 85.2275C121.289 75.8362 113.676 68.2231 104.285 68.2231C94.8933 68.2231 87.2802 75.8362 87.2802 85.2275C87.2802 94.6187 94.8933 102.232 104.285 102.232Z" fill="#8012DC"/>
<path d="M106.266 90.9049C105.216 90.8755 103.908 90.8389 102.902 90.1035C102.602 89.8755 102.356 89.5846 102.18 89.2512C102.004 88.9179 101.904 88.5502 101.885 88.1739C101.867 87.9065 101.911 87.6385 102.014 87.3909C102.116 87.1433 102.275 86.9228 102.476 86.7466C103.002 86.3023 103.77 86.1974 104.598 86.4413L103.741 80.1736L104.37 80.0874L105.378 87.4556L104.853 87.2145C104.243 86.9346 103.407 86.7925 102.887 87.2319C102.759 87.3467 102.66 87.4894 102.596 87.6489C102.533 87.8084 102.507 87.9804 102.521 88.1515C102.536 88.4316 102.611 88.7051 102.742 88.9534C102.872 89.2016 103.055 89.4189 103.277 89.5903C104.06 90.1624 105.102 90.2366 106.284 90.2695L106.266 90.9049Z" fill="#2F2E41"/>
<path d="M100.627 80.7141H97.2048V81.3496H100.627V80.7141Z" fill="#2F2E41"/>
<path d="M111.43 80.7141H108.007V81.3496H111.43V80.7141Z" fill="#2F2E41"/>
<path d="M93.0512 71.9393C90.2952 71.625 88.1607 68.9844 87.9262 66.3051C87.6473 63.1176 89.5036 60.0902 92.0503 58.3016C94.7135 56.431 98.0317 55.6499 101.242 55.4779C107.505 55.1663 113.66 57.195 118.51 61.1696C120.916 63.1676 123.162 65.7127 124.014 68.7869C124.753 71.4567 124.152 74.4812 122.004 76.351C121.473 76.8093 120.853 77.1524 120.182 77.3588C119.512 77.5653 118.806 77.6305 118.109 77.5504C116.443 77.3774 114.906 76.5013 113.575 75.5338C110.986 73.6518 108.861 71.0299 105.708 70.0465C103.396 69.3253 100.395 69.9601 98.9818 72.0511C98.6611 72.5298 98.4533 73.075 98.3741 73.6457C98.3449 73.7674 98.363 73.8957 98.4248 74.0045C98.4866 74.1134 98.5875 74.1947 98.7069 74.232C98.8288 74.2648 98.9587 74.2482 99.0684 74.1859C99.1782 74.1236 99.259 74.0206 99.2932 73.8991C99.6642 71.2653 102.903 70.2826 105.175 70.884C108.489 71.761 110.713 74.7178 113.431 76.5963C114.861 77.5839 116.486 78.3737 118.239 78.5154C119.751 78.6339 121.25 78.1732 122.434 77.2266C124.757 75.3927 125.645 72.2385 125.131 69.3987C124.537 66.1101 122.323 63.2916 119.895 61.1095C114.971 56.7324 108.579 54.3712 101.993 54.4962C98.6332 54.5734 95.1279 55.2669 92.2337 57.0425C89.4263 58.7649 87.2565 61.6464 86.9729 64.9958C86.7233 67.944 88.305 71.0276 91.0202 72.3192C91.6604 72.6224 92.3469 72.8162 93.0512 72.8925C93.6596 72.9618 93.6546 72.0081 93.0512 71.9393Z" fill="#2F2E41"/>
<path d="M40.1032 89.34L42.1206 88.6916C42.3368 88.2773 41.9412 88.5431 42.13 88.1403C47.2339 77.2517 42.5169 70.5714 42.5169 70.5714L38.8679 73.0839C38.8589 73.0633 38.8515 73.0419 38.8424 73.0211C38.8424 73.0211 38.194 71.5801 37.1853 72.6608C37.1853 72.6608 40.3554 80.37 36.8251 89.9524L40.9318 91.8257L42.5169 89.9524L42.5529 89.7723L39.7162 89.5144L40.1032 89.34Z" fill="#CCCCCC"/>
<path d="M97.6335 129.795C81.4228 126.193 66.3287 133.649 66.3287 133.649L66.2876 133.613L60.2767 128.246L36.7891 89.9164L42.5169 89.9524C58.4395 80.4421 80.8463 81.7389 80.8463 81.7389C90.5008 92.6902 97.6335 129.795 97.6335 129.795Z" fill="#3F3D56"/>
<path opacity="0.1" d="M66.2877 133.613L60.2767 128.246L36.7891 89.9164L42.5169 89.9524C42.5169 89.9524 65.346 120.104 66.2877 133.613Z" fill="black"/>
<path d="M68.9257 103.706C73.833 102.201 77.0356 98.4518 76.0788 95.3324C75.122 92.213 70.3682 90.9044 65.4608 92.4096C60.5534 93.9148 57.3508 97.6638 58.3076 100.783C59.2644 103.903 64.0183 105.211 68.9257 103.706Z" fill="#8012DC"/>
<path d="M18.7494 71.3319C17.4551 76.1166 13.0216 79.0799 13.0216 79.0799C13.0216 79.0799 10.6867 74.2857 11.9811 69.5009C13.2754 64.7162 17.7089 61.7529 17.7089 61.7529C17.7089 61.7529 20.0438 66.5472 18.7494 71.3319Z" fill="#CCCCCC"/>
<path d="M6.97449 71.3319C8.26885 76.1166 12.7023 79.0799 12.7023 79.0799C12.7023 79.0799 15.0372 74.2857 13.7429 69.5009C12.4485 64.7162 8.01504 61.7529 8.01504 61.7529C8.01504 61.7529 5.68014 66.5472 6.97449 71.3319Z" fill="#CCCCCC"/>
<path d="M8.87641 70.3036C12.4282 73.7611 12.862 79.076 12.862 79.076C12.862 79.076 7.53729 78.7853 3.98555 75.3278C0.433815 71.8703 0 66.5554 0 66.5554C0 66.5554 5.32468 66.8462 8.87641 70.3036Z" fill="#3F3D56"/>
<path d="M16.8475 70.3036C13.2958 73.7611 12.8619 79.076 12.8619 79.076C12.8619 79.076 18.1866 78.7853 21.7384 75.3278C25.2901 71.8703 25.7239 66.5554 25.7239 66.5554C25.7239 66.5554 20.3992 66.8462 16.8475 70.3036Z" fill="#3F3D56"/>
<path d="M196.994 125.345C195.699 130.13 191.266 133.093 191.266 133.093C191.266 133.093 188.931 128.299 190.225 123.514C191.52 118.73 195.953 115.766 195.953 115.766C195.953 115.766 198.288 120.561 196.994 125.345Z" fill="#CCCCCC"/>
<path d="M185.219 125.345C186.513 130.13 190.946 133.093 190.946 133.093C190.946 133.093 193.281 128.299 191.987 123.514C190.693 118.73 186.259 115.766 186.259 115.766C186.259 115.766 183.924 120.561 185.219 125.345Z" fill="#CCCCCC"/>
<path d="M187.121 124.317C190.672 127.774 191.106 133.089 191.106 133.089C191.106 133.089 185.781 132.799 182.23 129.341C178.678 125.884 178.244 120.569 178.244 120.569C178.244 120.569 183.569 120.86 187.121 124.317Z" fill="#3F3D56"/>
<path d="M195.092 124.317C191.54 127.774 191.106 133.089 191.106 133.089C191.106 133.089 196.431 132.799 199.983 129.341C203.534 125.884 203.968 120.569 203.968 120.569C203.968 120.569 198.643 120.86 195.092 124.317Z" fill="#3F3D56"/>
<path d="M141.694 189.365H67.9814V190H141.694V189.365Z" fill="#3F3D56"/>
</g>
<defs>
<clipPath id="clip0_5_2099">
<rect width="203.968" height="190" fill="white"/>
</clipPath>
</defs>
</svg>
