<svg width="291" height="190" viewBox="0 0 291 190" fill="none" xmlns="http://www.w3.org/2000/svg">
<g clip-path="url(#clip0_5_1981)">
<path d="M267.677 91.7463H32.4228C29.2695 91.7463 26.7041 89.1809 26.7041 86.0272V5.71874C26.7041 2.56541 29.2695 0 32.4228 0H267.677C270.83 0 273.395 2.56541 273.395 5.71874V86.0272C273.395 89.1809 270.83 91.7463 267.677 91.7463ZM32.4228 0.681802C29.6455 0.681802 27.3859 2.94144 27.3859 5.71874V86.0272C27.3859 88.8047 29.6455 91.0645 32.4228 91.0645H267.677C270.454 91.0645 272.714 88.8047 272.714 86.0272V5.71874C272.714 2.94144 270.454 0.681802 267.677 0.681802H32.4228Z" fill="#3F3D56"/>
<path d="M290.118 187.685H0V188.259H290.118V187.685Z" fill="#E6E6E6"/>
<path d="M290.118 158.368H0V158.942H290.118V158.368Z" fill="#E6E6E6"/>
<path d="M132.215 94.6997C132.423 97.3177 133.943 99.3324 135.609 99.1996C137.275 99.0667 138.457 96.8369 138.248 94.2179C138.179 93.1706 137.86 92.155 137.318 91.2562L136.295 80.1743L131.105 80.7651L132.665 91.6271C132.271 92.6007 132.117 93.6543 132.215 94.6997Z" fill="#FFB6B6"/>
<path d="M126.015 42.9989C126.015 42.9989 130.867 40.4306 133.327 44.2686C135.787 48.1067 137.485 89.6156 137.485 89.6156L130.666 90.3436L129.374 61.0934L126.015 42.9989Z" fill="#E6E6E6"/>
<path d="M115.945 156.202L119.895 156.202L121.774 140.965L115.944 140.966L115.945 156.202Z" fill="#FFB6B6"/>
<path d="M129.479 156.113C129.602 156.32 129.667 156.988 129.667 157.229C129.667 157.97 129.066 158.57 128.326 158.57H116.093C115.588 158.57 115.178 158.16 115.178 157.655V157.146C115.178 157.146 114.573 155.615 115.819 153.729C115.819 153.729 117.368 155.206 119.681 152.892L120.364 151.656L125.303 155.268L128.041 155.605C128.64 155.679 129.171 155.594 129.479 156.113Z" fill="#2F2E41"/>
<path d="M138.804 155.548L142.631 154.57L140.681 139.343L135.032 140.786L138.804 155.548Z" fill="#FFB6B6"/>
<path d="M151.894 152.112C152.065 152.282 152.293 152.914 152.353 153.147C152.536 153.865 152.103 154.595 151.386 154.778L139.533 157.806C139.044 157.931 138.546 157.635 138.421 157.146L138.295 156.652C138.295 156.652 137.329 155.319 138.07 153.183C138.07 153.183 139.936 154.231 141.605 151.416L141.96 150.05L147.64 152.327L150.375 151.976C150.974 151.899 151.468 151.685 151.894 152.112Z" fill="#2F2E41"/>
<path d="M112.677 39.7235L112.49 38.3644L114.716 32.9277L120.832 32.2481L122.153 40.0314L112.677 39.7235Z" fill="#FFB6B6"/>
<path opacity="0.1" d="M112.677 39.7235L112.49 38.3644L114.716 32.9277L120.832 32.2481L122.153 40.0314L112.677 39.7235Z" fill="black"/>
<path d="M105.541 78.1201L102.823 85.5955L104.862 89.673L115.056 148.797H121.833L120.492 96.4688L136.123 148.797H142.83L137.436 113.458L133.404 80.8384L130.959 79.3276L119.133 72.6834L105.541 78.1201Z" fill="#2F2E41"/>
<path d="M122.871 83.2169L118.793 83.8965L113.357 70.9844H125.589L122.871 83.2169Z" fill="#E6E6E6"/>
<path d="M131.026 79.819L122.871 83.2169L120.153 77.1007L118.793 83.8965L104.522 79.3025L106.561 70.9844L104.522 43.8011L111.719 39.0032L112.677 38.3644L121.512 39.044L122.286 39.4653L127.628 42.4419L128.987 64.8682L131.026 79.819Z" fill="#2F2E41"/>
<path d="M122.286 39.4653L118.454 55.6938L111.719 39.0032L112.677 38.3644L121.512 39.044L122.286 39.4653Z" fill="#E6E6E6"/>
<path d="M115.735 38.3644L114.376 40.7052L115.735 41.4854L115.056 55.736L117.774 59.4315L120.492 53.9696L118.454 41.4854L119.133 38.3644H115.735Z" fill="#2F2E41"/>
<path d="M117.774 37.0052C121.34 37.0052 124.23 34.1147 124.23 30.5492C124.23 26.9836 121.34 24.0931 117.774 24.0931C114.208 24.0931 111.318 26.9836 111.318 30.5492C111.318 34.1147 114.208 37.0052 117.774 37.0052Z" fill="#FFB6B6"/>
<path d="M113.648 31.1155L115.043 31.7243L115.652 28.0715C115.652 28.0715 118.087 26.8539 119.913 27.4627C121.74 28.0715 124.784 27.4627 124.784 27.4627C124.784 27.4627 124.784 21.3748 120.522 21.3748C116.261 21.3748 111.999 21.9836 111.999 23.8099C111.999 25.6363 110.173 27.4627 110.173 27.4627C110.173 27.4627 107.738 31.1155 110.173 33.5506C112.608 35.9858 113.825 35.9858 113.825 35.9858L113.648 31.1155Z" fill="#2F2E41"/>
<path d="M101.121 94.5086C101.05 97.1341 102.348 99.2987 104.018 99.3435C105.689 99.3883 107.101 97.2964 107.171 94.6701C107.214 93.6213 107.004 92.5776 106.561 91.6264L106.72 80.4986L101.497 80.5351L101.894 91.5012C101.4 92.4276 101.135 93.4588 101.121 94.5086Z" fill="#FFB6B6"/>
<path d="M107.584 42.4291C107.584 42.4291 103.166 41.07 101.127 45.1475C99.0887 49.225 101.807 90.6796 101.807 90.6796H108.664L106.844 61.4575L107.584 42.4291Z" fill="#E6E6E6"/>
<path d="M277.035 119.659L260.563 114.616C260.198 114.505 259.816 114.464 259.436 114.496L175.949 121.602C174.759 121.703 174.459 123.308 175.533 123.832L178.208 125.135H178.136V187.503H180.656V126.327L189.038 130.411C189.679 130.723 190.395 130.851 191.104 130.779L191.996 130.689V187.503H194.516V130.434L259.089 123.912V187.503H261.609V123.657L272.319 122.575V187.503H274.839V122.321L276.793 122.124C278.164 121.985 278.354 120.063 277.035 119.659Z" fill="#3F3D56"/>
<path d="M200.186 121.355C201.761 121.355 225.07 118.52 225.07 118.52L228.535 123.245L204.281 127.969L200.186 121.355Z" fill="white"/>
<path d="M225.768 185.081L221.718 185.073L219.819 169.45L225.796 169.46L225.768 185.081Z" fill="#A0616A"/>
<path d="M211.894 184.965C211.767 185.177 211.699 185.862 211.699 186.109C211.698 186.869 212.312 187.485 213.071 187.486L225.613 187.508C226.13 187.509 226.551 187.09 226.552 186.572L226.553 186.05C226.553 186.05 227.176 184.481 225.902 182.545C225.902 182.545 224.312 184.057 221.944 181.681L221.246 180.412L216.176 184.107L213.369 184.447C212.755 184.522 212.21 184.434 211.894 184.965Z" fill="#2F2E41"/>
<path d="M247.503 177.815L244.308 180.225L233.492 169.048L238.207 165.491L247.503 177.815Z" fill="#A0616A"/>
<path d="M236.502 186.001C236.529 186.243 236.885 186.824 237.032 187.018C237.483 187.617 238.335 187.737 238.934 187.285L248.828 179.821C249.237 179.512 249.318 178.931 249.01 178.523L248.699 178.111C248.699 178.111 248.255 176.504 246.096 175.738C246.096 175.738 245.745 177.877 242.462 177.418L241.155 176.834L239.365 182.77L237.356 184.713C236.916 185.138 236.435 185.393 236.502 186.001Z" fill="#2F2E41"/>
<path d="M239.04 97.068C239.04 100.803 236.012 103.83 232.278 103.83C228.543 103.83 225.516 100.803 225.516 97.068C225.516 93.3335 228.543 90.3061 232.278 90.3061C236.012 90.3061 239.04 93.3335 239.04 97.068Z" fill="#A0616A"/>
<path d="M238.403 136.056C238.403 136.056 213.506 134.647 212.097 137.465C210.687 140.284 219.715 178.998 219.715 178.998L227.77 177.31L223.84 150.148C223.84 150.148 244.616 155.65 247.435 149.074C250.253 142.497 249.442 140.049 249.442 140.049L238.403 136.056Z" fill="#2F2E41"/>
<path d="M244.781 131.325C244.781 131.325 220.399 136.552 219.785 139.643C219.172 142.733 238.119 177.681 238.119 177.681L245.44 173.922L234.466 148.767C234.466 148.767 255.957 148.578 256.935 141.49C257.914 134.402 256.483 132.255 256.483 132.255L244.781 131.325Z" fill="#2F2E41"/>
<path d="M247.563 104.818H235.849L227.833 117.971C227.833 117.971 225.954 126.47 227.833 127.388C229.712 128.305 229.712 138.17 229.712 138.17L249.442 140.049C249.442 140.049 252.26 110.455 251.321 107.636C250.381 104.818 247.563 104.818 247.563 104.818Z" fill="#8012DC"/>
<path d="M229.008 113.508L227.833 127.388L214.624 121.782L211.472 120.196C210.854 119.391 210.053 118.745 209.135 118.313C206.852 117.201 204.428 117.476 203.72 118.929C203.012 120.381 204.288 122.46 206.571 123.572C207.477 124.029 208.48 124.263 209.495 124.253L218.719 129.492L218.729 129.471L218.77 129.544L233.235 135.586L236.564 117.365L229.008 113.508Z" fill="#A0616A"/>
<path d="M227.598 98.0062C227.598 98.0062 220.552 98.9457 223.371 92.839C223.371 92.839 222.941 89.5286 225.035 89.3048C227.129 89.081 229.947 85.323 229.947 85.323C229.947 85.323 236.409 82.0348 239.755 85.323C243.1 88.6113 252.965 107.871 252.965 107.871L246.388 114.917C246.388 114.917 242.435 104.524 237.835 105.727C233.235 106.931 229.008 110.521 229.008 110.521C229.008 110.521 224.34 108.185 226.439 106.149C228.538 104.113 227.598 98.0062 227.598 98.0062Z" fill="#2F2E41"/>
<path d="M236.993 108.341C236.993 108.341 233.705 104.113 231.356 107.401C229.008 110.689 227.129 114.917 227.129 114.917L236.524 118.205L236.993 108.341Z" fill="#8012DC"/>
<path d="M272.665 186.568L261.749 151.874L261.751 151.874H261.776L261.732 151.817L261.731 151.816L260.954 149.345L260.954 149.345C262.138 148.324 262.945 146.866 263.105 145.187L258.116 117.745C258.459 114.141 255.697 110.991 252.078 110.862L240.82 110.834C237.619 110.721 234.847 113.033 234.381 116.201L234.132 117.883L230.683 141.347C230.557 142.191 230.608 143.023 230.806 143.801L228.324 144.125L227.571 144.226L224.595 144.614L224.585 144.617L224.213 144.664H223.81V154.744H223.835V186.961C223.835 187.169 224.005 187.339 224.213 187.339C224.424 187.339 224.595 187.169 224.595 186.961V154.744H229.011L233.417 186.923C233.446 187.112 233.606 187.251 233.795 187.251C233.811 187.251 233.83 187.251 233.846 187.248C234.054 187.219 234.199 187.027 234.17 186.819L229.779 154.744H250.969C253.073 154.744 255.022 154.076 256.61 152.933L265.011 186.864C265.055 187.036 265.209 187.15 265.379 187.15C265.41 187.15 265.441 187.146 265.472 187.138C265.675 187.087 265.798 186.88 265.747 186.677L257.264 152.418C257.377 152.324 257.49 152.223 257.596 152.12L260.969 151.922L271.941 186.796C271.992 186.958 272.141 187.061 272.303 187.061C272.34 187.061 272.379 187.056 272.417 187.044C272.616 186.981 272.728 186.768 272.665 186.568ZM260.233 149.883C260.261 149.868 260.286 149.849 260.311 149.833L260.393 150.09L260.233 149.883Z" fill="#E6E6E6"/>
<path d="M58.4867 127.761L65.8328 123.089L68.8193 124.891L58.4867 136.764V127.761Z" fill="#FFB6B6"/>
<path d="M48.4411 109.679C48.4411 109.679 43.5618 110.827 45.8579 117.428C48.1541 124.03 55.6165 137.807 57.9127 136.946C60.2088 136.085 60.4958 127.474 60.4958 127.474C60.4958 127.474 60.2088 127.761 59.0608 126.613C57.9127 125.465 57.9127 125.989 57.9127 124.722C57.9127 123.456 56.9737 122.517 56.9737 122.517L55.9036 120.299C55.9036 120.299 55.9036 109.966 51.5983 109.392C47.293 108.818 48.4411 109.679 48.4411 109.679Z" fill="#E6E6E6"/>
<path d="M71.2374 124.582C73.1429 122.677 73.7335 120.178 72.5566 119.001C71.3797 117.824 68.8809 118.415 66.9754 120.32C65.0699 122.226 64.4793 124.724 65.6562 125.901C66.8331 127.078 69.3319 126.488 71.2374 124.582Z" fill="#FFB6B6"/>
<path d="M29.4361 147.709L34.4487 156.006L63.6603 154.277L55.882 144.252L29.4361 147.709Z" fill="#E6E6E6"/>
<path d="M38.1646 186.514C37.9945 186.514 37.8462 186.388 37.8225 186.215L29.0936 122.464C29.0677 122.275 29.2001 122.1 29.3892 122.075C29.5783 122.047 29.7526 122.181 29.7786 122.37L38.5075 186.121C38.5334 186.31 38.4011 186.485 38.2119 186.51C38.196 186.513 38.1802 186.514 38.1646 186.514Z" fill="#E6E6E6"/>
<path d="M29.4362 186.595C29.2452 186.595 29.0905 186.44 29.0905 186.249V122.429C29.0905 122.238 29.2452 122.084 29.4362 122.084C29.6271 122.084 29.7818 122.238 29.7818 122.429V186.249C29.7818 186.44 29.6271 186.595 29.4362 186.595Z" fill="#E6E6E6"/>
<path d="M73.2534 186.341C73.1065 186.341 72.9701 186.246 72.9237 186.099L52.2682 120.447C52.2109 120.265 52.3121 120.07 52.4942 120.013C52.6763 119.956 52.8705 120.057 52.9277 120.239L73.5832 185.891C73.6405 186.073 73.5393 186.268 73.3572 186.325C73.3227 186.336 73.2877 186.341 73.2534 186.341Z" fill="#E6E6E6"/>
<path d="M66.9442 186.422C66.7898 186.422 66.6492 186.318 66.6094 186.161L52.2629 128.219C52.2159 128.034 52.3277 127.845 52.5127 127.798C52.6983 127.752 52.8859 127.863 52.933 128.048L67.2795 185.991C67.3265 186.176 67.2147 186.364 67.0297 186.411C67.0011 186.418 66.9724 186.422 66.9442 186.422Z" fill="#E6E6E6"/>
<path d="M29.4361 123.446L53.3757 123.078L57.7834 148.227H29.7818L29.4361 123.446Z" fill="#E6E6E6"/>
<path d="M66.2254 160.427L60.1921 171.049L67.1972 172.591L70.1177 165.036L66.2254 160.427Z" fill="#FFB6B6"/>
<path d="M62.3591 169.043C62.3591 169.043 62.1247 167.311 60.7464 167.861C59.3682 168.411 55.3904 170.453 55.3904 170.453C55.3904 170.453 65.7653 187.311 67.7342 186.526C69.7032 185.741 67.3462 180.975 67.3462 180.975L67.8664 172.552L62.3591 169.043Z" fill="#2F2E41"/>
<path d="M39.5435 139.816C39.5435 139.816 37.3909 149.718 43.9923 153.162C50.5937 156.606 73.1246 148.139 73.1246 148.139L62.792 163.621L69.9674 166.508C69.9674 166.508 86.3274 144.982 85.1794 141.538C84.0313 138.094 76.2818 137.807 76.2818 137.807L58.7737 138.668L54.1814 137.233L39.5435 139.816Z" fill="#2F2E41"/>
<path d="M57.2998 165.141L47.815 172.839L53.7786 176.825L59.2479 170.851L57.2998 165.141Z" fill="#FFB6B6"/>
<path d="M50.5632 171.76C50.5632 171.76 50.9751 170.061 49.4913 170.072C48.0075 170.082 43.5591 170.538 43.5591 170.538C43.5591 170.538 47.0885 190.015 49.2082 190C51.3279 189.985 50.8665 184.689 50.8665 184.689L54.4161 177.032L50.5632 171.76Z" fill="#2F2E41"/>
<path d="M39.9471 136.234C39.9471 136.234 34.3388 144.674 39.2344 150.284C44.1299 155.894 68.1973 156.206 68.1973 156.206L52.9393 166.867L58.5723 172.167C58.5723 172.167 81.6438 158.07 81.8277 154.444C82.0117 150.818 74.8979 147.731 74.8979 147.731L58.2767 142.162L54.5215 139.154L39.9471 136.234Z" fill="#2F2E41"/>
<path d="M54.3543 116.685C54.3543 116.685 48.901 114.676 46.3178 114.676C46.071 114.676 45.827 114.705 45.583 114.756C43.9298 115.106 42.4086 116.527 41.6796 117.302C41.3954 117.606 41.2319 117.81 41.2319 117.81C41.2319 117.81 41.2491 117.612 41.2835 117.265C41.4528 115.439 42.0785 109.449 43.2008 105.615C43.6026 104.246 44.0647 103.152 44.5957 102.621C45.8327 101.381 46.4039 99.8945 46.668 98.7866C46.8918 97.8365 46.8918 97.1678 46.8918 97.1678L44.7995 96.2666L44.412 93.7351C44.3431 94.0335 44.0245 94.6162 42.954 95.7327C42.8621 95.8274 42.7616 95.9078 42.6554 95.9767C41.1113 96.9468 37.9627 95.2591 36.2664 94.1972C36.9725 91.7432 38.2526 89.4987 40.5774 89.1313C46.0308 88.2702 46.0308 85.113 49.475 88.5573C49.7591 88.8414 50.0462 89.1141 50.3332 89.3781C51.4353 91.4848 51.8372 94.3091 51.9807 96.2723C52.084 97.6471 52.0582 98.6029 52.0582 98.6029C52.0582 98.6029 53.4933 107.213 55.7894 108.936C58.0855 110.658 54.3543 116.685 54.3543 116.685Z" fill="#2F2E41"/>
<path d="M43.7346 102.908L39.8565 108.597L48.614 110.945V102.908H43.7346Z" fill="#FFB6B6"/>
<path opacity="0.1" d="M43.7346 102.908L39.8565 108.597L48.614 110.945V102.908H43.7346Z" fill="black"/>
<path d="M49.1586 108.387L40.8351 104.943C40.8351 104.943 29.6414 109.822 30.5024 119.294C31.3635 128.766 39.4 145.126 39.4 145.126L55.473 138.237L53.7509 119.868L49.1586 108.387Z" fill="#E6E6E6"/>
<path d="M45.5898 105.448C49.6454 105.448 52.9332 102.16 52.9332 98.1045C52.9332 94.0488 49.6454 90.7611 45.5898 90.7611C41.5342 90.7611 38.2465 94.0488 38.2465 98.1045C38.2465 102.16 41.5342 105.448 45.5898 105.448Z" fill="#FFB6B6"/>
<path d="M55.5024 95.4457C54.0673 96.8808 52.9192 98.3159 52.9192 98.3159L52.3452 96.0197C52.3452 96.0197 52.2132 96.1173 51.9807 96.2723C51.0708 96.8923 48.6283 98.4508 46.668 98.7866C45.7954 98.9358 45.0205 98.8411 44.5153 98.3159C43.4448 97.1994 43.1262 96.6167 43.0573 96.3182L42.6698 98.8497L40.5774 99.751C40.5774 99.751 40.5774 102.902 42.8736 105.204C42.9855 105.316 43.0946 105.454 43.2008 105.615C44.2972 107.268 45.0836 111.315 45.583 114.756C46.025 117.816 46.2374 120.393 46.2374 120.393C46.2374 120.393 44.0647 117.672 41.6796 117.302C41.5476 117.282 41.4155 117.268 41.2835 117.265C41.2405 117.259 41.1945 117.259 41.1515 117.259C38.5683 117.259 33.115 119.268 33.115 119.268C33.115 119.268 29.3837 113.241 31.6799 111.519C33.976 109.797 35.4111 101.186 35.4111 101.186C35.4111 101.186 35.3164 97.5007 36.2664 94.1972C36.9725 91.7432 38.2526 89.4987 40.5775 89.1313C46.0308 88.2702 46.0308 85.113 49.475 88.5573C49.7592 88.8414 50.0462 89.1141 50.3332 89.3781C53.5421 92.3287 56.8198 94.1283 55.5024 95.4457Z" fill="#2F2E41"/>
<path d="M23.2951 133.974H20.5679V187.836H23.2951V133.974Z" fill="#3F3D56"/>
<path d="M89.4298 133.974H86.7026V187.836H89.4298V133.974Z" fill="#3F3D56"/>
<path d="M72.0439 111.134H53.9761V129.201H72.0439V111.134Z" fill="#8012DC"/>
<path d="M43.5618 130.344L50.9078 125.673L53.8944 127.474L43.5618 139.347V130.344Z" fill="#FFB6B6"/>
<path d="M33.5162 112.262C33.5162 112.262 28.6368 113.41 30.933 120.012C33.2291 126.613 40.6916 140.39 42.9878 139.529C45.2839 138.668 45.5709 130.057 45.5709 130.057C45.5709 130.057 45.2839 130.344 44.1358 129.196C42.9878 128.048 42.9878 128.572 42.9878 127.306C42.9878 126.039 42.0487 125.1 42.0487 125.1L40.9786 122.882C40.9786 122.882 40.9786 112.549 36.6734 111.975C32.3681 111.401 33.5162 112.262 33.5162 112.262Z" fill="#E6E6E6"/>
<path d="M56.3125 127.165C58.218 125.26 58.8086 122.761 57.6317 121.584C56.4547 120.407 53.956 120.998 52.0505 122.903C50.145 124.809 49.5544 127.308 50.7313 128.485C51.9082 129.661 54.407 129.071 56.3125 127.165Z" fill="#FFB6B6"/>
<path d="M94.8842 131.929H12.3862V138.065H94.8842V131.929Z" fill="#3F3D56"/>
<path d="M178.702 82.8389H166.518C165.552 82.8389 164.769 83.6219 164.769 84.5877V89.6126C164.769 90.5785 165.552 91.3614 166.518 91.3614H178.702C179.667 91.3614 180.45 90.5785 180.45 89.6126V84.5877C180.45 83.6219 179.667 82.8389 178.702 82.8389Z" fill="#3F3D56"/>
<path d="M204.269 87.8638H192.085C191.119 87.8638 190.336 88.6468 190.336 89.6126V89.6126C190.336 90.5785 191.119 91.3614 192.085 91.3614H204.269C205.235 91.3614 206.018 90.5785 206.018 89.6126V89.6126C206.018 88.6468 205.235 87.8638 204.269 87.8638Z" fill="#8012DC"/>
</g>
<defs>
<clipPath id="clip0_5_1981">
<rect width="290.118" height="190" fill="white"/>
</clipPath>
</defs>
</svg>
