<svg width="218" height="190" viewBox="0 0 218 190" fill="none" xmlns="http://www.w3.org/2000/svg">
<g clip-path="url(#clip0_5_2128)">
<path d="M10.4752 64.7462L0.00751178 58.8503C-0.133686 52.5424 1.26705 46.2953 4.08811 40.6516C6.50149 51.6054 19.2023 56.8168 25.0623 66.3809C26.8671 69.3778 27.9744 72.7425 28.3021 76.2255C28.6298 79.7086 28.1695 83.2207 26.9553 86.5017L27.6438 94.9945C22.2337 93.3741 17.2392 90.6001 13.0044 86.8635C8.76966 83.127 5.39528 78.5168 3.11378 73.3506C1.86258 70.4397 0.98293 67.3828 0.495591 64.2521C5.3761 64.7715 10.4752 64.7462 10.4752 64.7462Z" fill="#F2F2F2"/>
<path d="M198.65 172.007L198.971 164.79C202.317 163.002 206.049 162.057 209.843 162.038C204.622 166.307 205.274 174.537 201.734 180.278C200.616 182.06 199.112 183.568 197.332 184.689C195.552 185.811 193.543 186.517 191.452 186.757L187.083 189.432C186.483 186.09 186.615 182.657 187.47 179.37C188.325 176.083 189.882 173.021 192.035 170.394C193.257 168.932 194.658 167.63 196.205 166.519C197.252 169.278 198.65 172.007 198.65 172.007Z" fill="#F2F2F2"/>
<path d="M187.391 185.718L183.434 185.718L181.552 170.456L187.392 170.456L187.391 185.718Z" fill="#FFB6B6"/>
<path d="M188.4 189.554L175.642 189.553V189.392C175.642 188.075 176.165 186.812 177.096 185.88C178.028 184.949 179.291 184.426 180.608 184.426L182.939 182.658L187.287 184.426L188.4 184.426L188.4 189.554Z" fill="#2F2E41"/>
<path d="M169.008 185.718L165.052 185.718L163.169 170.456L169.009 170.456L169.008 185.718Z" fill="#FFB6B6"/>
<path d="M170.018 189.554L157.259 189.553V189.392C157.259 188.075 157.783 186.812 158.714 185.88C159.645 184.949 160.908 184.426 162.225 184.426L164.556 182.658L168.904 184.426L170.018 184.426L170.018 189.554Z" fill="#2F2E41"/>
<path d="M167.296 102.281L193.033 102.924C197.92 105.579 197.995 111.325 196.393 118.147C196.393 118.147 196.934 122.202 195.852 123.283C194.771 124.365 194.23 124.365 194.771 126.257C195.312 128.149 192.455 131.24 192.802 131.587C193.149 131.934 193.96 133.826 193.96 133.826L191.257 149.235C191.257 149.235 189.365 175.998 188.824 176.539C188.283 177.079 187.743 176.539 188.283 177.89C188.824 179.242 189.365 178.701 188.824 179.242C188.345 179.758 187.894 180.3 187.472 180.864H180.936C180.936 180.864 180.444 178.16 180.444 177.89C180.444 177.62 179.903 175.998 179.903 175.728C179.903 175.457 180.381 174.979 180.381 174.979C180.546 174.43 180.658 173.866 180.714 173.295C180.714 172.754 182.336 151.938 182.336 151.938L179.092 124.905L171.252 151.398C171.252 151.398 171.252 174.646 170.712 175.187C170.171 175.728 170.171 175.457 170.441 176.539C170.712 177.62 171.793 177.35 170.982 178.16C170.171 178.971 169.901 177.62 170.171 178.971L170.441 180.323L162.331 180.439C162.331 180.439 161.25 178.16 161.791 177.35C162.332 176.539 162.299 176.76 161.639 175.433C160.98 174.106 160.71 173.835 160.98 173.565C161.25 173.295 161.25 171.857 161.25 171.857L162.602 145.991C162.602 145.991 162.872 118.688 162.872 117.877C162.893 117.46 162.816 117.043 162.648 116.661V115.56L163.683 111.659L167.296 102.281Z" fill="#2F2E41"/>
<path d="M182.756 48.7653C187.172 48.7653 190.753 45.1852 190.753 40.7688C190.753 36.3525 187.172 32.7723 182.756 32.7723C178.34 32.7723 174.76 36.3525 174.76 40.7688C174.76 45.1852 178.34 48.7653 182.756 48.7653Z" fill="#FFB6B6"/>
<path d="M178.758 54.0505C177.035 55.0746 176.005 56.9564 175.413 58.8713C174.318 62.4165 173.659 66.0819 173.45 69.7865L172.825 80.8774L165.086 104.493C171.793 110.168 197.003 105.783 197.003 105.783C197.003 105.783 197.777 105.525 197.003 104.751C196.229 103.977 195.476 104.663 196.249 103.889C197.023 103.115 196.49 103.977 196.232 103.203C195.974 102.43 196.232 102.946 196.49 102.688C196.748 102.43 194.493 100.108 194.493 100.108L196.557 86.5523L199.136 59.2095C196.041 55.3402 189.815 53.0593 189.815 53.0593L188.207 50.1639L180.164 50.8073L178.758 54.0505Z" fill="#E6E6E6"/>
<path d="M177.661 36.0758C177.971 36.0783 178.279 36.1187 178.578 36.1962C179.169 36.3381 179.768 36.4387 180.373 36.4971C182.224 36.6713 183.964 37.4608 185.313 38.7395C186.663 40.0182 187.546 41.7124 187.82 43.5515C188.284 43.1463 189.342 42.4011 190.208 43.0937C190.222 43.1047 190.229 43.1104 190.26 43.0959C190.835 42.8229 191.857 39.4622 191.888 36.5033C191.904 34.9327 191.657 32.9273 190.387 32.2922L190.32 32.2587L190.302 32.186C190.217 31.8327 189.269 31.2296 187.622 30.7603C184.627 29.9073 180.163 28.2457 177.649 30.691C177.459 31.5154 176.84 33.2796 176.215 33.4796C175.523 33.7009 174.925 33.8919 174.831 34.7411C174.752 35.9496 174.758 37.1621 174.848 38.3697C175.082 37.6307 175.543 36.9839 176.164 36.5204C176.606 36.2229 177.129 36.0678 177.661 36.0758Z" fill="#2F2E41"/>
<path d="M162.777 80.26L175.84 71.8946L169.261 63.1488L162.764 71.1401L142.523 72.3815C141.99 71.8552 141.316 71.4952 140.583 71.3454C139.849 71.1956 139.088 71.2624 138.392 71.5377C137.696 71.813 137.095 72.2849 136.662 72.8959C136.23 73.5069 135.984 74.2305 135.956 74.9786C135.927 75.7266 136.117 76.4668 136.502 77.1088C136.887 77.7508 137.451 78.267 138.124 78.5943C138.797 78.9216 139.551 79.046 140.294 78.9522C141.037 78.8585 141.736 78.5507 142.307 78.0663L162.777 80.26Z" fill="#FFB6B6"/>
<path d="M187.963 60.218C188.721 64.8061 174.405 73.5674 174.405 73.5674C174.404 72.4905 165.86 80.6203 165.474 79.7272C164.378 77.1888 163.607 71.1766 162.075 70.2143C161.199 69.6639 167.351 64.4941 167.351 64.4941C167.351 64.4941 170.571 61.25 174.797 57.1581C175.97 55.9791 177.422 55.1162 179.019 54.6495C180.615 54.1828 182.304 54.1277 183.928 54.4892C183.928 54.4892 187.205 55.6299 187.963 60.218Z" fill="#E6E6E6"/>
<path d="M214.887 82.4559L206.247 69.5736L197.642 76.3364L205.769 82.6621L207.439 102.873C206.924 103.416 206.578 104.098 206.444 104.834C206.31 105.571 206.393 106.33 206.683 107.02C206.973 107.71 207.457 108.301 208.077 108.721C208.697 109.14 209.426 109.371 210.174 109.383C210.923 109.396 211.659 109.19 212.293 108.792C212.926 108.393 213.43 107.819 213.743 107.139C214.056 106.459 214.165 105.702 214.055 104.962C213.946 104.221 213.623 103.529 213.127 102.968L214.887 82.4559Z" fill="#FFB6B6"/>
<path d="M194.316 57.7C198.887 56.8449 207.949 70.9728 207.949 70.9728C206.873 70.9958 215.182 79.3667 214.297 79.7712C211.782 80.9209 205.788 81.8187 204.858 83.3705C204.326 84.258 199.027 78.2171 199.027 78.2171C199.027 78.2171 195.716 75.0664 191.536 70.9282C190.332 69.7802 189.438 68.3463 188.938 66.7601C188.438 65.1739 188.347 63.4868 188.674 61.856C188.674 61.856 189.745 58.555 194.316 57.7Z" fill="#E6E6E6"/>
<path d="M217.094 189.617C217.094 189.667 217.084 189.717 217.065 189.764C217.046 189.81 217.018 189.853 216.982 189.888C216.947 189.924 216.904 189.952 216.858 189.971C216.811 189.99 216.762 190 216.711 190H126.54C126.438 190 126.341 189.96 126.269 189.888C126.197 189.816 126.157 189.719 126.157 189.617C126.157 189.516 126.197 189.418 126.269 189.346C126.341 189.275 126.438 189.234 126.54 189.234H216.711C216.762 189.234 216.811 189.244 216.858 189.263C216.904 189.282 216.947 189.311 216.982 189.346C217.018 189.382 217.046 189.424 217.065 189.47C217.084 189.517 217.094 189.567 217.094 189.617Z" fill="#CCCCCC"/>
<path d="M133.561 73.6041H24.1254C22.4156 73.6061 20.7765 74.2861 19.5675 75.4951C18.3585 76.7041 17.6784 78.3432 17.6765 80.053V148.187C17.6785 149.897 18.3585 151.536 19.5675 152.745C20.7765 153.954 22.4156 154.634 24.1254 154.636H133.561C135.27 154.634 136.91 153.954 138.119 152.745C139.328 151.536 140.008 149.897 140.01 148.187V80.053C140.008 78.3432 139.328 76.7041 138.119 75.4951C136.91 74.2861 135.27 73.606 133.561 73.6041Z" fill="#8012DC"/>
<path d="M133.561 73.6041H24.1254C22.4156 73.6061 20.7765 74.2861 19.5675 75.4951C18.3585 76.7041 17.6784 78.3432 17.6765 80.053V148.187C17.6785 149.897 18.3585 151.536 19.5675 152.745C20.7765 153.954 22.4156 154.634 24.1254 154.636H133.561C135.27 154.634 136.91 153.954 138.119 152.745C139.328 151.536 140.008 149.897 140.01 148.187V80.053C140.008 78.3432 139.328 76.7041 138.119 75.4951C136.91 74.2861 135.27 73.606 133.561 73.6041ZM135.677 122.546C135.651 129.482 132.907 136.132 128.034 141.069C123.162 146.005 116.548 148.836 109.613 148.952C98.5085 149.097 115.757 149.153 102.364 149.153C71.7399 149.153 39.8074 148.861 27.893 148.671C26.3254 148.639 24.8326 147.995 23.7332 146.877C22.6339 145.759 22.0151 144.256 22.0091 142.688V80.0581C22.0097 79.4966 22.2326 78.9582 22.6292 78.5607C23.0257 78.1632 23.5635 77.9389 24.1249 77.9369H133.556C134.118 77.9376 134.656 78.1605 135.053 78.5569C135.451 78.9534 135.675 79.491 135.677 80.0524V122.546Z" fill="#3F3D56"/>
<path d="M120.089 34.3705H36.7112C35.9734 34.3716 35.254 34.6003 34.6511 35.0254C34.0482 35.4506 33.5913 36.0514 33.3426 36.7459L20.4654 72.8736C20.2732 73.4129 20.2133 73.9904 20.2906 74.5576C20.368 75.1248 20.5804 75.6652 20.91 76.1332C21.2396 76.6013 21.6767 76.9834 22.1846 77.2475C22.6926 77.5115 23.2565 77.6497 23.829 77.6506L135.653 77.849H135.658C136.249 77.849 136.832 77.7021 137.353 77.4215C137.874 77.141 138.317 76.7355 138.643 76.2414C138.969 75.7474 139.167 75.1802 139.22 74.5908C139.272 74.0013 139.178 73.4081 138.945 72.8641L123.376 36.538C123.101 35.8944 122.643 35.3458 122.058 34.9605C121.474 34.5751 120.789 34.37 120.089 34.3705Z" fill="#3F3D56"/>
<path d="M139.234 73.6486C139.234 74.1331 139.136 74.6124 138.945 75.0577L123.377 103.021C123.1 103.663 122.641 104.21 122.057 104.595C121.473 104.979 120.789 105.185 120.09 105.186H36.7126C35.9746 105.185 35.2548 104.957 34.6515 104.532C34.0481 104.107 33.5905 103.506 33.3411 102.811L20.4664 75.0481C20.3086 74.6058 20.2395 74.1367 20.2631 73.6677C20.2866 73.1986 20.4024 72.7388 20.6038 72.3146C20.8052 71.8903 21.0882 71.5099 21.4366 71.1951C21.7851 70.8803 22.1922 70.6372 22.6347 70.4798C23.0174 70.3416 23.4213 70.2709 23.8282 70.2707L37.4879 70.245L43.0631 70.2353L116.425 70.1067L122.004 70.097L135.654 70.0713H135.657C136.606 70.0714 137.516 70.4484 138.186 71.1192C138.857 71.7901 139.234 72.6999 139.234 73.6486Z" fill="#3F3D56"/>
<path d="M32.3296 124.712C33.983 124.712 56.6874 126.1 56.6874 127.753C56.6874 129.407 33.983 130.7 32.3296 130.7C31.5356 130.7 30.7742 130.384 30.2128 129.823C29.6513 129.261 29.3359 128.5 29.3359 127.706C29.3359 126.912 29.6513 126.151 30.2128 125.589C30.7742 125.028 31.5356 124.712 32.3296 124.712Z" fill="#3F3D56"/>
<path d="M114.897 12.3923H44.5943C42.7102 12.3945 40.9039 13.1439 39.5717 14.4762C38.2394 15.8084 37.49 17.6148 37.4878 19.4989V105.186H120.089C120.768 105.188 121.432 104.995 122.004 104.629V19.4989C122.001 17.6148 121.252 15.8084 119.92 14.4762C118.587 13.1439 116.781 12.3945 114.897 12.3923Z" fill="#E6E6E6"/>
<path d="M88.0634 18.1541H49.5357C47.8201 18.1558 46.1752 18.8378 44.9618 20.0507C43.7484 21.2635 43.0655 22.9081 43.063 24.6237V105.186H116.425V46.5159C116.416 38.9965 113.426 31.7876 108.109 26.4707C102.792 21.1537 95.5828 18.1628 88.0634 18.1541Z" fill="white"/>
<path d="M103.927 98.0309H55.5612C55.1431 98.0309 54.7422 98.197 54.4466 98.4926C54.1509 98.7882 53.9849 99.1892 53.9849 99.6072C53.9849 100.025 54.1509 100.426 54.4466 100.722C54.7422 101.018 55.1431 101.184 55.5612 101.184H103.927C104.345 101.184 104.746 101.018 105.041 100.722C105.337 100.426 105.503 100.025 105.503 99.6072C105.503 99.1892 105.337 98.7882 105.041 98.4926C104.746 98.197 104.345 98.0309 103.927 98.0309Z" fill="#E4E4E4"/>
<path d="M103.927 91.7962H55.5614C55.1429 91.7962 54.7415 91.9624 54.4456 92.2584C54.1497 92.5543 53.9834 92.9556 53.9834 93.3741C53.9834 93.7927 54.1497 94.194 54.4456 94.4899C54.7415 94.7859 55.1429 94.9521 55.5614 94.9521H103.927C104.345 94.9521 104.747 94.7859 105.043 94.4899C105.339 94.194 105.505 93.7927 105.505 93.3741C105.505 92.9556 105.339 92.5543 105.043 92.2584C104.747 91.9624 104.345 91.7962 103.927 91.7962Z" fill="#E4E4E4"/>
<path d="M76.5269 85.5647H55.5612C55.1431 85.5647 54.7422 85.7308 54.4466 86.0264C54.1509 86.322 53.9849 86.723 53.9849 87.1411C53.9849 87.5591 54.1509 87.9601 54.4466 88.2557C54.7422 88.5513 55.1431 88.7174 55.5612 88.7174H76.5269C76.945 88.7174 77.3459 88.5513 77.6416 88.2557C77.9372 87.9601 78.1033 87.5591 78.1033 87.1411C78.1033 86.723 77.9372 86.322 77.6416 86.0264C77.3459 85.7308 76.945 85.5647 76.5269 85.5647Z" fill="#E4E4E4"/>
<path d="M103.927 72.5098H55.5614C55.1429 72.5098 54.7415 72.6761 54.4456 72.972C54.1497 73.2679 53.9834 73.6693 53.9834 74.0878C53.9834 74.5063 54.1497 74.9077 54.4456 75.2036C54.7415 75.4995 55.1429 75.6658 55.5614 75.6658H103.927C104.345 75.6658 104.747 75.4995 105.043 75.2036C105.339 74.9077 105.505 74.5063 105.505 74.0878C105.505 73.6693 105.339 73.2679 105.043 72.972C104.747 72.6761 104.345 72.5098 103.927 72.5098Z" fill="#E4E4E4"/>
<path d="M103.927 66.2784H55.5612C55.1431 66.2784 54.7422 66.4444 54.4466 66.7401C54.1509 67.0357 53.9849 67.4366 53.9849 67.8547C53.9849 68.2728 54.1509 68.6737 54.4466 68.9694C54.7422 69.265 55.1431 69.4311 55.5612 69.4311H103.927C104.345 69.4311 104.746 69.265 105.041 68.9694C105.337 68.6737 105.503 68.2728 105.503 67.8547C105.503 67.4366 105.337 67.0357 105.041 66.7401C104.746 66.4444 104.345 66.2784 103.927 66.2784Z" fill="#E4E4E4"/>
<path d="M76.527 60.0437H55.5614C55.1429 60.0437 54.7415 60.2099 54.4456 60.5058C54.1497 60.8018 53.9834 61.2031 53.9834 61.6216C53.9834 62.0401 54.1497 62.4415 54.4456 62.7374C54.7415 63.0334 55.1429 63.1996 55.5614 63.1996H76.527C76.9455 63.1996 77.3469 63.0334 77.6428 62.7374C77.9388 62.4415 78.105 62.0401 78.105 61.6216C78.105 61.2031 77.9388 60.8018 77.6428 60.5058C77.3469 60.2099 76.9455 60.0437 76.527 60.0437Z" fill="#E4E4E4"/>
<path d="M103.927 46.9888H55.5614C55.1429 46.9888 54.7415 47.155 54.4456 47.4509C54.1497 47.7469 53.9834 48.1482 53.9834 48.5667C53.9834 48.9852 54.1497 49.3866 54.4456 49.6825C54.7415 49.9785 55.1429 50.1447 55.5614 50.1447H103.927C104.345 50.1447 104.747 49.9785 105.043 49.6825C105.339 49.3866 105.505 48.9852 105.505 48.5667C105.505 48.1482 105.339 47.7469 105.043 47.4509C104.747 47.155 104.345 46.9888 103.927 46.9888Z" fill="#8012DC"/>
<path d="M103.927 40.7573H55.5614C55.1429 40.7573 54.7415 40.9235 54.4456 41.2195C54.1497 41.5154 53.9834 41.9167 53.9834 42.3353C53.9834 42.7538 54.1497 43.1551 54.4456 43.451C54.7415 43.747 55.1429 43.9132 55.5614 43.9132H103.927C104.345 43.9132 104.747 43.747 105.043 43.451C105.339 43.1551 105.505 42.7538 105.505 42.3353C105.505 41.9167 105.339 41.5154 105.043 41.2195C104.747 40.9235 104.345 40.7573 103.927 40.7573Z" fill="#8012DC"/>
<path d="M76.527 34.5226H55.5614C55.1429 34.5226 54.7415 34.6888 54.4456 34.9848C54.1497 35.2807 53.9834 35.6821 53.9834 36.1006C53.9834 36.5191 54.1497 36.9204 54.4456 37.2164C54.7415 37.5123 55.1429 37.6785 55.5614 37.6785H76.527C76.9455 37.6785 77.3469 37.5123 77.6428 37.2164C77.9388 36.9204 78.105 36.5191 78.105 36.1006C78.105 35.6821 77.9388 35.2807 77.6428 34.9848C77.3469 34.6888 76.9455 34.5226 76.527 34.5226Z" fill="#8012DC"/>
<path d="M119.368 24.5545C126.148 24.5545 131.645 19.0578 131.645 12.2773C131.645 5.49672 126.148 0 119.368 0C112.587 0 107.091 5.49672 107.091 12.2773C107.091 19.0578 112.587 24.5545 119.368 24.5545Z" fill="#8012DC"/>
<path d="M117.693 18.667C117.481 18.667 117.272 18.6176 117.082 18.5228C116.893 18.428 116.728 18.2903 116.601 18.1206L113.251 13.6547C113.143 13.5112 113.064 13.3479 113.019 13.1739C112.974 13 112.964 12.8189 112.989 12.641C113.014 12.4631 113.074 12.2919 113.166 12.1373C113.257 11.9826 113.378 11.8475 113.522 11.7398C113.666 11.632 113.829 11.5536 114.004 11.5091C114.178 11.4647 114.359 11.455 114.537 11.4807C114.714 11.5063 114.885 11.5668 115.04 11.6587C115.194 11.7505 115.329 11.8719 115.436 12.016L117.628 14.9375L123.256 6.49545C123.457 6.19407 123.769 5.98486 124.124 5.91382C124.479 5.84279 124.848 5.91576 125.15 6.11667C125.451 6.31759 125.66 6.63 125.731 6.98517C125.802 7.34034 125.729 7.70918 125.528 8.01056L118.829 18.0588C118.708 18.2406 118.545 18.3906 118.354 18.4963C118.163 18.6021 117.949 18.6605 117.731 18.6666C117.718 18.6668 117.706 18.667 117.693 18.667Z" fill="white"/>
</g>
<defs>
<clipPath id="clip0_5_2128">
<rect width="217.094" height="190" fill="white"/>
</clipPath>
</defs>
</svg>
