<svg width="286" height="190" viewBox="0 0 286 190" fill="none" xmlns="http://www.w3.org/2000/svg">
<g clip-path="url(#clip0_5_2058)">
<path d="M267.585 180.317L264.378 182.402L254.81 171.026L259.543 167.949L267.585 180.317Z" fill="#A0616A"/>
<path d="M269.873 183.588L260.012 190L259.931 189.875C259.269 188.857 259.039 187.618 259.291 186.431C259.542 185.243 260.256 184.204 261.273 183.542L262.186 181.004L266.435 180.186L267.296 179.626L269.873 183.588Z" fill="#2F2E41"/>
<path d="M212.633 185.78L208.809 185.78L206.989 171.027L212.634 171.028L212.633 185.78Z" fill="#A0616A"/>
<path d="M212.768 189.77L201.006 189.77V189.621C201.006 188.407 201.489 187.242 202.347 186.384C203.206 185.525 204.37 185.043 205.584 185.043L207.733 183.413L211.741 185.043H212.768L212.768 189.77Z" fill="#2F2E41"/>
<path d="M252.223 95.5369L217.925 96.291L214.525 100.541C214.525 100.541 214.819 99.0423 214.558 100.688C214.296 102.333 207.679 135.144 208.93 136.245C210.181 137.345 206.558 144.943 206.292 145.406C206.026 145.869 203.159 168.739 206.292 170.619L207.469 178.602H212.947C212.947 178.602 218.433 172.252 217.329 171.101C216.225 169.95 219.383 166.122 219.504 164.07C219.625 162.018 220.778 152.708 219.884 151.216C218.991 149.723 217.783 144.121 220.05 141.95C222.316 139.778 232.886 113.092 232.886 113.092C232.886 113.092 235.958 144.377 235.951 146.834C235.942 150.028 238.039 148.447 238.039 151.252C238.039 151.819 244.87 166.382 249.462 170.934L258.955 178.237L263.337 174.95V170.203C263.337 170.203 259.276 161.396 257.86 159.979C256.443 158.563 251.213 154.227 251.213 152.244C251.213 150.26 248.751 149.57 250.407 146.94C252.063 144.311 251.496 143.178 250.93 142.045C250.363 140.911 251.438 94.4803 251.438 94.4803L252.223 95.5369Z" fill="#2F2E41"/>
<path d="M237.921 26.6896C243.645 26.6896 248.285 22.0494 248.285 16.3255C248.285 10.6016 243.645 5.96149 237.921 5.96149C232.197 5.96149 227.557 10.6016 227.557 16.3255C227.557 22.0494 232.197 26.6896 237.921 26.6896Z" fill="#A0616A"/>
<path d="M246.201 99.498L249.118 90.716L254.368 91.6826L250.953 100.858C251.161 101.395 251.214 101.98 251.108 102.547C251.001 103.113 250.739 103.638 250.35 104.064C249.961 104.489 249.461 104.798 248.907 104.954C248.352 105.111 247.765 105.111 247.211 104.952C246.657 104.793 246.158 104.484 245.77 104.057C245.383 103.631 245.122 103.104 245.017 102.538C244.912 101.971 244.967 101.386 245.177 100.849C245.386 100.312 245.741 99.8444 246.201 99.498Z" fill="#A0616A"/>
<path d="M185.697 82.5262L192.845 76.6492L196.772 80.2642L188.993 86.2089C188.883 86.7744 188.616 87.2978 188.224 87.7203C187.832 88.1428 187.33 88.4475 186.775 88.6003C186.219 88.7531 185.632 88.7479 185.079 88.5853C184.526 88.4226 184.03 88.109 183.645 87.6796C183.261 87.2502 183.004 86.7221 182.903 86.1547C182.802 85.5873 182.862 85.003 183.075 84.4676C183.288 83.9322 183.647 83.4668 184.11 83.1239C184.573 82.7809 185.122 82.5739 185.697 82.5262Z" fill="#A0616A"/>
<path d="M225.512 14.5124C226.629 14.8593 227.707 15.0638 228.433 14.1473C229.16 13.2307 228.97 12.1828 230.051 11.7409C230.955 11.4378 231.939 11.4834 232.811 11.8687C232.968 11.9271 233.122 11.9929 233.272 12.0586C233.356 11.9856 233.44 11.9162 233.531 11.8505C234.218 11.3619 235.066 11.1554 235.901 11.2735C235.291 11.5682 234.789 12.0472 234.466 12.6428C234.765 12.7926 235.068 12.9423 235.375 13.0701C236.664 13.5974 238.058 13.8171 239.447 13.7119C240.835 13.6067 242.18 13.1794 243.375 12.4639C242.178 15.6188 243.109 16.7435 244.865 19.6245L244.934 19.7925C244.759 19.0366 247.056 18.1639 247.056 19.2594C246.955 20.3817 246.71 21.4863 246.326 22.5457C248.579 19.1535 249.908 15.1843 249.035 11.3758C248.849 10.5761 248.765 9.71799 248.257 9.06801C247.75 8.42171 246.815 8.04194 246.077 8.40709C245.986 7.16869 245.561 5.97821 244.847 4.96221C244.133 3.94621 243.157 3.14268 242.023 2.63703C240.888 2.13138 239.638 1.94252 238.406 2.09052C237.173 2.23852 236.003 2.71785 235.021 3.47756C234.108 4.1823 233.388 5.10614 232.574 5.92773C231.76 6.74934 230.796 7.49787 229.657 7.70235C228.934 7.83017 228.119 7.75348 227.542 8.20994C226.874 8.73941 226.867 9.67054 226.87 10.5652C227.524 10.5465 228.169 10.7232 228.722 11.0727C228.045 11.0897 227.391 11.3197 226.852 11.73C226.842 11.7364 226.832 11.7437 226.823 11.7519C226.626 13.2563 226.706 13.574 225.512 14.5124Z" fill="#2F2E41"/>
<path d="M261.976 48.4835C261.735 47.3275 261.257 46.2337 260.574 45.2708C259.89 44.3078 259.015 43.4964 258.003 42.8873C257.928 42.5005 257.794 42.2531 257.588 42.1798C254.642 41.1326 246.418 36.2946 246.418 36.2946L245.729 30.7624L230.848 30.0474L227.04 36.2946C227.04 36.2946 217.176 37.2861 217.359 40.897C214.97 43.8767 204.336 57.1904 197.962 65.9949C194.916 70.2029 192.842 73.3821 193.108 73.9085C194.005 75.6814 192.745 74.4852 191.335 74.8056C189.926 75.1259 190.609 75.9589 190.641 77.1871C190.673 78.4153 185.824 80.9996 185.824 80.9996C188.783 82.0569 192.488 86.4036 192.488 86.4036C192.488 86.4036 196.077 82.6232 196.728 82.2281C197.38 81.8329 197.743 81.2563 199.804 80.5408C201.865 79.8253 201 79.2806 201.15 77.7641C201.299 76.2476 201.801 77.369 204.695 75.9701C207.59 74.5712 205.24 75.105 206.041 73.1934C206.842 71.2818 206.586 72.3284 209.192 70.7479C210.758 69.7979 212.314 68.4027 214.478 65.9949C215.915 64.3967 217.62 62.3533 219.776 59.6948C219.79 59.6768 219.804 59.658 219.819 59.6399C219.963 61.7949 220.075 63.9508 220.141 65.9949C220.33 71.8027 220.15 76.6999 219.305 78.0486C218.118 79.9414 216.11 86.2761 214.477 91.838C214.161 92.9166 214.105 94.0548 214.314 95.1591C214.523 96.2635 214.991 97.3025 215.68 98.191C216.368 99.0794 217.257 99.7919 218.275 100.27C219.292 100.748 220.408 100.978 221.531 100.941C231.66 100.607 246.481 99.8346 249.37 98.1395C250.941 98.3641 252.494 98.7053 254.014 99.1603C254.014 99.1603 255.036 94.0492 255.377 93.3677C255.718 92.6862 255.718 92.0047 257.081 90.301C258.444 88.5973 257.422 88.5973 256.74 87.2343C256.059 85.8713 257.081 86.5528 258.785 83.8268C260.488 81.1009 258.785 82.8046 258.444 80.7601C258.103 78.7156 258.444 79.7379 259.807 77.0119C260.936 74.7532 261.598 71.7896 262.373 65.9948C262.533 64.7962 262.698 63.4793 262.874 62.0192C263.452 57.1959 262.72 52.0448 261.976 48.4835Z" fill="#8012DC"/>
<path d="M99.1898 181.783C98.9626 181.793 98.7378 181.734 98.5457 181.612C98.3536 181.49 98.2035 181.313 98.1158 181.103C98.0281 180.893 98.0069 180.661 98.0553 180.439C98.1036 180.217 98.2191 180.015 98.3861 179.861L98.4621 179.559C98.4521 179.534 98.442 179.51 98.4319 179.486C98.2031 178.946 97.8196 178.485 97.3298 178.162C96.8399 177.838 96.2654 177.667 95.6785 177.669C95.0916 177.671 94.5184 177.847 94.0309 178.174C93.5435 178.501 93.1635 178.964 92.9387 179.507C92.0402 181.67 90.8964 183.838 90.6147 186.126C90.4907 187.137 90.543 188.162 90.7694 189.156C88.6592 184.553 87.5634 179.55 87.5564 174.486C87.5559 173.215 87.6265 171.946 87.7678 170.683C87.8846 169.647 88.0466 168.62 88.2539 167.599C89.3849 162.062 91.8133 156.872 95.3395 152.456C97.0462 151.525 98.4264 150.092 99.2942 148.353C99.6086 147.727 99.8308 147.06 99.9539 146.371C99.7614 146.396 99.2279 143.464 99.3731 143.284C99.1048 142.877 98.6246 142.674 98.3316 142.277C96.8743 140.301 94.8664 140.646 93.8182 143.331C91.5791 144.461 91.5574 146.336 92.9313 148.138C93.8054 149.285 93.9256 150.837 94.6925 152.064C94.6136 152.165 94.5315 152.263 94.4526 152.364C93.0102 154.219 91.7531 156.211 90.6992 158.311C90.9555 155.958 90.6496 153.578 89.8067 151.367C88.9524 149.306 87.3512 147.57 85.9412 145.789C84.2475 143.649 80.7744 144.583 80.476 147.296C80.4731 147.322 80.4703 147.348 80.4675 147.374C80.677 147.492 80.882 147.618 81.0826 147.751C81.3346 147.919 81.5299 148.159 81.6428 148.441C81.7558 148.722 81.7811 149.031 81.7156 149.327C81.65 149.622 81.4966 149.892 81.2754 150.099C81.0543 150.306 80.7757 150.442 80.4761 150.488L80.4455 150.493C80.5201 151.247 80.652 151.995 80.84 152.73C79.0311 159.726 82.9364 162.274 88.5127 162.388C88.6357 162.451 88.7557 162.515 88.8788 162.574C87.82 165.575 87.1558 168.701 86.903 171.873C86.7599 173.744 86.7684 175.624 86.9283 177.494L86.9188 177.427C86.5148 175.348 85.4055 173.472 83.7784 172.116C81.3617 170.13 77.9473 169.399 75.3401 167.804C75.063 167.626 74.7408 167.531 74.4116 167.53C74.0823 167.529 73.7596 167.623 73.4817 167.799C73.2038 167.976 72.9821 168.228 72.8429 168.526C72.7036 168.825 72.6526 169.157 72.6959 169.483C72.6994 169.506 72.7029 169.53 72.7065 169.553C73.0952 169.711 73.4736 169.893 73.8396 170.099C74.049 170.217 74.254 170.342 74.4546 170.475C74.7066 170.643 74.9019 170.884 75.0148 171.165C75.1278 171.446 75.1531 171.755 75.0876 172.051C75.022 172.347 74.8686 172.616 74.6475 172.823C74.4263 173.031 74.1477 173.166 73.8482 173.212L73.8175 173.217C73.7954 173.22 73.7764 173.223 73.7544 173.227C74.4185 174.812 75.3505 176.272 76.5097 177.541C77.6408 183.648 82.4987 184.227 87.6952 182.449H87.6984C88.2685 184.927 89.0946 187.338 90.1634 189.645H98.9691C99.0007 189.547 99.0291 189.446 99.0575 189.348C98.2424 189.4 97.4241 189.351 96.6209 189.203C97.2743 188.402 97.9276 187.593 98.5809 186.792C98.5955 186.777 98.6092 186.761 98.6219 186.744C98.9534 186.334 99.2879 185.927 99.6193 185.517L99.6195 185.516C99.6371 184.259 99.4925 183.004 99.1898 181.783Z" fill="#F2F2F2"/>
<path d="M31.4589 168.464L33.8885 171.032L45.1702 162.674L41.5844 158.884L31.4589 168.464Z" fill="#C78F8F"/>
<path d="M35.4403 169.885L32.6897 167.301L32.0142 166.668L25.0116 172.266L26.8332 174.192L28.9773 172.816L27.9923 175.417L32.8219 180.521C33.0533 180.766 33.3569 180.931 33.6884 180.991C34.0199 181.051 34.3619 181.003 34.6645 180.855C34.9672 180.707 35.2145 180.466 35.3706 180.168C35.5266 179.869 35.5831 179.529 35.5319 179.196L34.4896 172.452L36.3263 170.715L35.4403 169.885Z" fill="#2F2E41"/>
<path d="M84.8562 74.9663L84.0859 83.3759C84.0859 83.3759 82.7413 89.7118 83.6723 89.1982C84.6034 88.6847 82.9341 90.9961 83.3737 93.0004C83.8134 95.0047 79.6184 109.952 81.5184 108.403C83.4184 106.855 80.4204 117.552 78.5242 122.829C77.9437 124.46 77.3471 126.111 76.7467 127.75C76.6283 128.082 76.5097 128.41 76.3874 128.742C75.6092 130.875 74.8309 132.976 74.0845 134.959C73.9778 135.236 73.875 135.512 73.7724 135.785C73.7684 135.793 73.7684 135.801 73.7645 135.801C71.3075 142.267 69.2021 147.354 68.3608 148.196C67.9224 148.634 60.9664 153.659 53.9551 158.691C46.5963 163.972 39.178 169.265 39.178 169.265L32.2496 161.997C32.2496 161.997 32.4155 161.95 32.7276 161.855C33.3043 161.689 34.3709 161.377 35.7692 160.962C41.5993 159.244 34.193 156.57 39.4862 154.658C40.9793 154.121 41.9747 153.702 42.1998 153.481C43.5151 152.197 45.2809 149.136 46.1143 150.42C46.9477 151.704 50.728 142.164 51.8181 141.22C52.4027 140.711 54.3106 138.329 55.946 136.235C57.352 134.434 58.5608 132.842 58.5608 132.842C58.5608 132.842 58.5845 131.989 58.62 130.63C58.6715 128.62 58.7465 125.495 58.8256 122.367C58.8215 122.363 58.8215 122.363 58.8256 122.363C58.8532 121.185 58.8807 120.008 58.9085 118.891C58.9282 118.025 58.9479 117.192 58.9677 116.422C59.019 114.115 59.0545 112.369 59.0545 111.935C59.0545 110.509 59.0545 111.619 60.1803 110.757C60.3485 110.625 60.5081 110.483 60.6583 110.331C60.899 110.114 61.121 109.878 61.322 109.624C61.4049 109.446 60.8874 109.687 60.2158 109.553C59.8522 109.48 59.5159 109.307 59.2441 109.055C57.83 107.783 59.3548 103.873 59.3548 103.873C56.1395 97.4419 56.3726 92.1686 57.8774 88.104C59.0027 85.1873 60.7888 82.5711 63.0954 80.4608C63.9733 79.6242 64.9298 78.8742 65.9515 78.221L66.0502 77.6879L67.1365 71.8062C67.7141 71.4889 68.3149 71.2156 68.9337 70.9886C70.863 70.2964 72.9333 70.0901 74.9613 70.3882C76.9769 70.6799 78.9284 71.3116 80.7325 72.2566C82.2071 72.9974 83.591 73.9067 84.8562 74.9663Z" fill="#2F2E41"/>
<path d="M54.5183 181.566L58.0382 181.894L61.0043 168.17L55.8088 167.687L54.5183 181.566Z" fill="#C78F8F"/>
<path d="M64.6557 186.946L59.4258 182.565L59.6628 180.045L58.4464 180.006L54.6781 179.883H54.674L53.7498 179.851L52.1815 188.676L54.8241 188.921L55.5232 186.472L56.499 189.079L57.8973 189.209L63.4945 189.731C63.5419 189.734 63.5932 189.738 63.6407 189.738C63.8632 189.739 64.0832 189.692 64.2861 189.6C64.4891 189.509 64.6703 189.376 64.8178 189.209C65.0469 188.958 65.187 188.639 65.2166 188.301C65.2398 188.046 65.2008 187.79 65.1031 187.554C65.0054 187.318 64.8519 187.109 64.6557 186.946Z" fill="#2F2E41"/>
<path d="M74.0845 134.959C72.7454 142.247 67.077 159.335 63.6485 169.337C62.0882 173.907 60.9981 177 60.9981 177L59.2205 176.439H59.2165L56.2106 175.491L55.1164 175.143H55.1124L53.7852 174.72C53.7852 174.72 53.9393 166.56 53.9551 158.691C53.9669 155.393 53.9511 152.142 53.888 149.567C53.8168 146.758 53.6944 144.748 53.493 144.349C52.6594 142.713 54.0539 142.539 55.5272 142.129C57.0044 141.714 55.8511 141.09 55.2782 139.763C54.8913 138.878 55.6536 137.697 56.1948 137.025C56.3441 136.836 56.5036 136.655 56.6727 136.484C56.6727 136.484 56.4119 136.393 55.946 136.235C57.352 134.434 58.5607 132.842 58.5607 132.842C58.5607 132.842 58.5845 131.989 58.62 130.63C58.6715 128.62 58.7465 125.495 58.8256 122.367C58.8215 122.363 58.8215 122.363 58.8256 122.363C58.8531 121.185 58.8807 120.008 58.9085 118.891C61.1678 120.625 63.3641 122.323 65.3549 123.895C65.3573 123.897 65.3593 123.9 65.3607 123.902C65.362 123.905 65.3628 123.908 65.3628 123.911C70.1462 127.691 73.7369 130.725 74.2425 131.689C74.4716 132.123 74.3925 133.285 74.0845 134.959Z" fill="#2F2E41"/>
<path d="M285.086 189.998H0.395003C0.290242 189.998 0.189771 189.957 0.115693 189.883C0.041616 189.809 0 189.708 0 189.603C0 189.499 0.041616 189.398 0.115693 189.324C0.189771 189.25 0.290242 189.208 0.395003 189.208H285.086C285.191 189.208 285.291 189.25 285.365 189.324C285.439 189.398 285.481 189.499 285.481 189.603C285.481 189.708 285.439 189.809 285.365 189.883C285.291 189.957 285.191 189.998 285.086 189.998Z" fill="#E6E6E6"/>
<path d="M65.142 60.7507L65.8822 67.6167L65.4469 76.62L85.3887 74.2508L87.2622 60.7507L84.8748 60.7744L65.142 60.7507Z" fill="#FFB6B6"/>
<path d="M82.1046 38.5744L74.5995 32.6493L70.6599 32.4203L64.8141 36.1652L63.3827 43.4678L59.9974 51.6911L64.9627 73.8831C64.9627 73.8831 65.4284 75.4755 64.2081 75.6668C62.9877 75.8581 63.134 78.2054 63.134 78.2054C63.134 78.2054 63.3825 80.2398 62.1975 80.419C61.0125 80.5981 57.8527 80.5981 60.6177 84.1531C63.3827 87.7082 85.2523 74.2624 85.2523 74.2624L88.4288 57.5956C88.4288 57.5956 94.5889 49.3218 87.9549 44.5832L82.1046 38.5744Z" fill="#8012DC"/>
<path d="M49.3415 88.9604C49.0108 88.5478 48.7747 88.0676 48.6496 87.5538C48.5245 87.04 48.5137 86.505 48.6177 85.9866C48.7218 85.4681 48.9383 84.9787 49.2519 84.553C49.5656 84.1272 49.9688 83.7754 50.4331 83.5223L59.8733 51.8412L65.7762 54.813L55.4956 85.1791C55.8691 85.9873 55.9331 86.9044 55.6755 87.7567C55.4179 88.6089 54.8567 89.3371 54.0981 89.8032C53.3396 90.2693 52.4364 90.441 51.5597 90.2856C50.683 90.1303 49.8938 89.6588 49.3415 88.9604Z" fill="#C78F8F"/>
<path d="M66.1699 35.8721C66.1699 35.8721 64.4825 34.9753 63.3283 38.8559C62.4043 41.9627 54.9066 60.4677 54.8109 64.9668C54.1939 65.0976 53.6379 65.4299 53.2305 65.9114C52.8232 66.393 52.5876 66.9964 52.5609 67.6265L61.8312 68.8688C63.4511 67.5025 63.876 65.6572 63.2493 65.1095L65.2621 59.6122L73.6592 42.1217L67.4011 36.4986L66.1699 35.8721Z" fill="#8012DC"/>
<path d="M115.704 78.5469C115.823 78.0318 115.829 77.4967 115.719 76.9794C115.61 76.462 115.388 75.9749 115.07 75.5524C114.752 75.1299 114.345 74.7823 113.878 74.5341C113.411 74.2858 112.896 74.143 112.368 74.1156L90.7122 49.3831L86.1184 54.8645L108.52 77.7986C108.532 78.6889 108.871 79.5435 109.472 80.2006C110.073 80.8577 110.894 81.2715 111.779 81.3638C112.665 81.456 113.553 81.2202 114.277 80.701C115 80.1818 115.508 79.4154 115.704 78.5469Z" fill="#C78F8F"/>
<path d="M77.5726 37.9564C77.5726 37.9564 78.7062 36.4181 81.4251 39.418C83.6017 41.8196 98.3645 55.2626 100.396 59.2779C101.009 59.129 101.654 59.1882 102.23 59.4462C102.805 59.7042 103.279 60.1464 103.575 60.7031L95.7538 65.8321C93.7024 65.3006 92.5212 63.8205 92.8495 63.0557L88.6574 58.9694L73.5223 46.8302L76.7334 39.0538L77.5726 37.9564Z" fill="#8012DC"/>
<path d="M181.852 89.7121C181.227 89.4961 180.711 89.0448 180.413 88.4541C180.116 87.8634 180.061 87.1799 180.259 86.5492C180.302 86.4216 180.355 86.2977 180.418 86.1789L174.437 79.6459L176.684 75.4447L183.909 85.2799C184.382 85.5787 184.742 86.0256 184.934 86.5508C185.126 87.076 185.139 87.6499 184.97 88.1831C184.872 88.4855 184.714 88.7655 184.507 89.0071C184.3 89.2488 184.047 89.4472 183.764 89.5912C183.48 89.7352 183.171 89.8219 182.853 89.8463C182.536 89.8707 182.217 89.8324 181.915 89.7336C181.894 89.7267 181.873 89.7196 181.852 89.7121Z" fill="#FFB6B6"/>
<path d="M143.507 40.0905C143.309 41.013 143.288 41.9646 143.445 42.8949C143.486 43.1581 143.544 43.4187 143.616 43.6751C143.884 44.6335 144.138 45.5167 144.384 46.3135C144.528 46.8085 144.677 47.2748 144.818 47.7077C145.637 50.2348 146.276 51.6655 146.729 51.9666C146.949 52.1139 147.17 52.2487 147.383 52.3804C148.48 53.0513 149.274 53.5375 148.743 54.7756C148.666 54.9525 148.574 55.1227 148.469 55.2845C148.293 55.5565 148.098 55.8161 147.886 56.0613C147.766 56.2 147.654 56.3465 147.553 56.4999C147.421 56.6957 147.363 56.8607 147.434 57.0101C147.524 57.1939 147.773 57.2853 148.308 57.3111C148.393 57.3149 148.491 57.3201 148.595 57.3198C148.629 57.322 148.664 57.3206 148.703 57.3209C148.772 57.3218 148.85 57.3224 148.929 57.3194C149.59 57.3068 150.443 57.6547 151.355 58.1859C154.049 59.7546 157.223 62.9122 157.261 62.9515L177.078 83.2145L177.464 82.9559L178.381 82.3398L178.699 82.128L179.061 81.8846L180.637 80.8298L181.433 80.2976L176.322 70.9129L175.765 69.8928L175.288 69.0126L165.53 51.092L161.654 44.931L160.789 43.5584L157.103 37.7048C156.582 36.8766 155.904 36.159 155.106 35.5929C154.308 35.0269 153.407 34.6236 152.453 34.4059C151.5 34.1883 150.512 34.1606 149.548 34.3245C148.584 34.4884 147.661 34.8406 146.833 35.3611C146.777 35.3962 146.721 35.432 146.666 35.4686C145.054 36.5412 143.921 38.1985 143.507 40.0905Z" fill="#8012DC"/>
<path d="M144.822 181.692L141.192 181.661L139.585 167.331L144.943 167.376L144.822 181.692Z" fill="#FFB6B6"/>
<path d="M145.786 180.017L144.838 179.954L140.97 179.69L139.726 179.607L139.703 182.202L133.904 186.136C133.617 186.331 133.401 186.612 133.285 186.938C133.17 187.264 133.162 187.619 133.263 187.951C133.363 188.282 133.567 188.572 133.844 188.78C134.122 188.987 134.458 189.1 134.804 189.102L142.021 189.162L143.285 186.602L143.747 189.178L146.473 189.201L145.786 180.017Z" fill="#2F2E41"/>
<path d="M183.047 179.039L179.577 180.106L173.719 166.93L178.841 165.355L183.047 179.039Z" fill="#FFB6B6"/>
<path d="M183.461 177.154L182.536 177.379L178.772 178.291L177.56 178.588L178.322 181.072L173.981 186.571C173.766 186.842 173.644 187.175 173.632 187.521C173.621 187.867 173.72 188.208 173.915 188.494C174.11 188.779 174.392 188.995 174.718 189.11C175.045 189.224 175.4 189.231 175.731 189.13L182.631 187.009L183.062 184.185L184.282 186.499L186.886 185.698L183.461 177.154Z" fill="#2F2E41"/>
<path d="M137.52 61.1949L130.591 81.3297L130.363 82.9409C128.617 84.5985 130.81 85.1446 129.988 85.5817C129.165 86.0188 128.612 87.2442 129.72 87.4631C130.828 87.6821 134.401 166.216 139.114 169.265C143.826 172.315 146.694 174.52 145.829 170.055C145.48 168.256 145.973 158.611 146.687 147.735C146.768 146.502 148.045 145.197 146.937 143.999C145.829 142.8 147.073 142.012 147.143 141.017C148.137 126.814 149.285 112.792 149.285 112.792C149.285 112.792 156.629 138.015 158.537 136.063C160.444 134.11 159.689 138.918 160.272 140.354C160.759 141.555 158.681 143.913 161.735 143.949C164.789 143.985 171.962 168.503 172.689 168.475C174.131 168.42 178.183 168.576 180.589 168.08C181.778 167.836 176.503 149.273 172.098 133.244C171.747 131.966 169.835 131.936 171.065 129.468C172.294 127 166.177 111.032 166.702 110.293C168.095 108.333 168.626 107.481 167.251 107.352C165.877 107.224 165.471 107.978 165.397 106.076C165.323 104.175 165.086 99.4855 165.086 99.4855C165.086 99.4855 164.09 80.9406 157.12 70.6947L156.526 64.607L137.52 61.1949Z" fill="#2F2E41"/>
<path d="M154.829 22.7524L145.641 24.0607L145.087 30.7137L140.553 37.8061C140.553 37.8061 130.474 44.8984 137.503 56.102C134.828 65.7531 132.169 75.0089 129.634 81.1797C127.659 93.4248 145.352 94.5984 165.579 90.2648C165.579 90.2648 165.3 85.0289 163.465 82.5118C161.629 79.9947 162.628 79.4451 162.628 79.4451L161.346 74.7425C162.071 67.9451 159.621 67.3351 158.469 64.1945L161.966 31.6089L154.829 22.7524Z" fill="#8012DC"/>
<path d="M110.721 79.7086C110.819 79.0545 111.167 78.4641 111.693 78.0632C112.219 77.6623 112.881 77.4824 113.538 77.5619C113.671 77.5802 113.802 77.6094 113.931 77.6494L119.253 70.5694L123.796 72.006L115.456 80.9165C115.249 81.436 114.876 81.8724 114.395 82.1576C113.914 82.4428 113.353 82.5607 112.798 82.493C112.16 82.4091 111.583 82.0756 111.192 81.5658C110.8 81.0559 110.628 80.4116 110.712 79.7745C110.715 79.7525 110.718 79.7305 110.721 79.7086Z" fill="#FFB6B6"/>
<path d="M157.995 35.6279C157.865 35.4659 157.722 35.308 157.572 35.1539C156.529 34.0786 155.185 33.3434 153.717 33.0446C152.249 32.7458 150.725 32.8972 149.344 33.4791C149.21 33.5343 149.076 33.5976 148.946 33.6608C144.225 35.9794 141.678 37.5239 141.369 38.2468C141.263 38.4917 141.172 38.7326 141.081 38.9656C140.994 39.1947 140.911 39.4119 140.824 39.6094C140.461 40.4548 140.042 40.9802 138.976 40.7431C138.622 40.6566 138.281 40.5252 137.961 40.3522C137.814 40.281 137.68 40.206 137.554 40.1348C137.096 39.8821 136.764 39.7004 136.538 39.8663C136.321 40.0281 136.313 40.439 136.511 41.391C136.576 41.7883 136.566 42.1944 136.479 42.5877C136.218 43.7352 135.809 44.8439 135.263 45.8861C134.444 47.5197 133.523 49.1003 132.505 50.6182L123.108 64.0167L122.472 64.9213L121.777 65.9128L116.231 73.8208L116.559 74.1564L117.934 75.5588L118.238 75.8708L118.515 76.1551L119.23 76.8859L119.901 77.5692L134.883 65.3637L136.554 64.0008L139.548 61.5599L145.683 56.5631L157.292 45.8189C158.025 45.1461 158.614 44.3322 159.025 43.4261C159.435 42.5199 159.659 41.5402 159.682 40.5456C159.682 40.4785 159.686 40.4152 159.686 40.3481C159.69 38.6257 159.092 36.9559 157.995 35.6279Z" fill="#8012DC"/>
<path d="M149.313 22.5103C154.983 22.5103 159.58 17.9136 159.58 12.2434C159.58 6.57316 154.983 1.97653 149.313 1.97653C143.643 1.97653 139.046 6.57316 139.046 12.2434C139.046 17.9136 143.643 22.5103 149.313 22.5103Z" fill="#FFB6B6"/>
<path d="M162.919 26.4798C164.297 28.4519 165.219 30.7059 165.617 33.0784C164.507 33.7888 163.214 34.1619 161.896 34.1526C161.851 33.9799 161.806 33.8073 161.755 33.6347C161.373 32.2979 160.805 31.0215 160.067 29.8431C160.168 31.1138 159.996 32.3914 159.562 33.5899C158.866 33.2733 158.119 33.0808 157.356 33.0209C156.735 33.0208 156.122 33.1653 155.566 33.4428C154.92 31.3009 154.325 29.3316 153.903 27.9185C153.891 31.4607 148.699 34.549 143.034 34.1014C142.829 33.9736 144.882 28.1487 144.683 28.0144C144.229 27.7139 143.788 27.3878 143.347 27.0681C145.201 24.2036 147.215 21.1345 146.87 20.6742C146.896 21.2433 144.862 23.9798 142.65 26.563C141.423 25.6615 148.398 10.9938 144.952 9.80451C144.894 10.3224 144.134 10.3224 143.206 10.2137C142.962 9.35921 142.598 8.54341 142.126 7.79042C142.187 8.54894 142.096 9.31208 141.857 10.0347C140.942 10.035 140.029 10.1314 139.134 10.3224C138.926 9.99645 138.698 9.6846 138.449 9.3889C138.474 9.74927 138.463 10.1112 138.417 10.4695C137.503 10.6677 136.749 10.8978 136.64 11.0833C135.924 10.8211 137.145 9.63827 136.697 9.02445C135.559 7.48992 137.247 5.25205 138.315 3.66633C140.508 0.41824 145.323 -0.707098 148.731 1.24304C148.884 0.712331 149.671 0.36068 150.681 0.124105C151.109 0.0297313 151.547 -0.0110816 151.985 0.00261286C156.333 0.0793344 162.369 3.66632 162.606 8.00782C162.625 8.44261 162.657 8.91575 162.689 9.42086C162.996 14.2803 162.619 18.7624 165.937 22.3174C167.139 23.6026 167.152 29.6896 166.691 32.8227C165.496 31.563 164.645 26.6653 162.919 26.4798Z" fill="#2F2E41"/>
<path d="M63.8383 16.5124C62.9364 18.7585 60.3922 23.1754 60.0476 25.5849L60.2027 25.4324C60.4986 25.9378 60.8348 26.4186 61.2081 26.8699C61.8772 26.1672 62.6852 25.6116 63.5808 25.2384C63.0918 26.2419 62.8085 27.3331 62.7478 28.4477C63.708 31.4574 68.1467 30.1171 70.7474 29.7885C73.3445 32.7592 76.7998 33.5344 81.3245 31.8265C82.5899 31.9568 84.0065 32.0359 84.8933 31.2881C85.78 30.5404 85.252 29.1556 85.729 28.1082C89.1274 20.6478 85.9912 17.9562 83.3265 14.5733C82.7402 13.8289 82.7426 12.718 82.0291 12.0077C81.0391 11.0232 79.5215 10.7203 78.1223 10.4778C78.4858 10.4969 78.8481 10.4222 79.1743 10.2608C79.5005 10.0993 79.7796 9.85664 79.9849 9.55607C80.1649 9.25324 80.2578 8.90657 80.2534 8.55429C80.2489 8.202 80.1472 7.8578 79.9595 7.55964C79.4591 6.73005 78.4193 6.24763 77.4162 6.12711C76.4278 6.06 75.4351 6.14534 74.4727 6.38014C73.8493 6.46213 73.2456 6.65509 72.6902 6.94986C72.4282 7.08967 72.2151 7.30613 72.0794 7.57032C71.9437 7.83451 71.8918 8.13383 71.9308 8.42826C72.0144 8.70016 72.1583 8.94968 72.3518 9.15821C72.5452 9.36674 72.7833 9.5289 73.0482 9.6326C73.4521 9.80335 73.8769 9.91963 74.3114 9.97839C72.3155 9.71939 70.288 10.0743 68.4988 10.9958C66.2564 12.1919 64.7432 14.2676 63.8383 16.5124Z" fill="#2F2E41"/>
<path d="M75.9803 29.1045C80.4073 29.1045 83.996 25.5158 83.996 21.0888C83.996 16.6619 80.4073 13.0731 75.9803 13.0731C71.5534 13.0731 67.9646 16.6619 67.9646 21.0888C67.9646 25.5158 71.5534 29.1045 75.9803 29.1045Z" fill="#C78F8F"/>
<path d="M68.2672 16.791C68.732 18.1956 70.0601 18.6482 71.2877 18.9305C71.6748 19.0207 72.0642 19.1048 72.4573 19.1796C72.6023 18.9983 72.7565 18.8206 72.9176 18.6526C73.5866 17.95 74.3947 17.3944 75.2903 17.0212C74.903 17.8138 74.6456 18.6636 74.528 19.5379C75.2701 19.6456 76.0163 19.7335 76.7666 19.8018C77.4015 19.937 78.064 19.823 78.6172 19.4836C79.1704 19.1442 79.5721 18.6052 79.7392 17.978C80.4223 19.095 81.23 20.147 82.3345 20.5907C82.9661 20.8176 83.6538 20.8363 84.2968 20.6439C84.9397 20.4516 85.5042 20.0583 85.9074 19.5218C86.5443 18.6466 86.9858 17.6448 87.2023 16.5843C87.5158 15.3404 87.6898 13.9076 87.0744 13.1184C86.5814 12.4797 85.7309 12.4682 84.9461 12.5249C83.2141 12.6577 81.5004 12.9684 79.832 13.452L79.6907 13.7696C79.9775 12.0471 79.3555 10.3898 78.2048 9.80038C77.4286 9.4063 76.4948 9.47237 75.5874 9.55231C74.422 9.60431 73.2704 9.827 72.1696 10.2133C70.9068 10.6991 69.8249 11.5632 69.0719 12.6873C68.2665 13.9102 67.8663 15.5779 68.2672 16.791Z" fill="#2F2E41"/>
<path d="M79.6943 9.29906C79.6152 9.27571 79.8202 9.3057 79.7491 9.30761C79.7844 9.30557 79.8195 9.30066 79.854 9.29292C79.8599 9.29174 79.9396 9.26628 79.8866 9.285C80.0057 9.2494 80.1119 9.18009 80.1924 9.08545C80.3807 8.85261 80.5284 8.58971 80.6293 8.30779C80.7567 7.93523 80.9615 7.59383 81.2302 7.30598C81.3064 7.2294 81.3996 7.17188 81.5023 7.13808C81.6049 7.10429 81.7141 7.09517 81.8209 7.11148C81.9278 7.12778 82.0293 7.16906 82.1172 7.23194C82.2051 7.29482 82.2769 7.37753 82.3268 7.47338C82.4282 7.84314 82.3935 8.23701 82.229 8.58334C82.1141 8.93574 81.9431 9.26729 81.7226 9.56523C81.3531 10.0524 80.8499 10.4216 80.2743 10.6278C79.608 10.8698 78.8814 10.8906 78.2024 10.687C78.1127 10.6498 78.0357 10.5873 77.9809 10.5071C77.9261 10.427 77.8958 10.3326 77.8937 10.2355C77.8916 10.1384 77.9177 10.0428 77.969 9.96026C78.0203 9.87777 78.0944 9.81197 78.1824 9.77088L79.3149 9.30732C79.3744 9.28084 79.4386 9.26636 79.5038 9.26472C79.569 9.26308 79.6338 9.2743 79.6947 9.29774C79.7555 9.32118 79.8111 9.35638 79.8583 9.40133C79.9055 9.44629 79.9434 9.50011 79.9698 9.55971C79.9962 9.61932 80.0106 9.68355 80.0121 9.74872C80.0137 9.81389 80.0024 9.87872 79.9788 9.93952C79.9553 10.0003 79.92 10.0559 79.875 10.103C79.83 10.1502 79.7761 10.188 79.7165 10.2143L79.7144 10.2152L78.5819 10.6787L78.5619 9.76259C78.7032 9.80338 78.8486 9.82825 78.9954 9.83671C79.152 9.85241 79.3101 9.84574 79.4649 9.81691C79.6132 9.79748 79.7588 9.76196 79.8994 9.71097C79.9894 9.6781 80.0777 9.64068 80.1639 9.59885C80.1952 9.58365 80.2263 9.56786 80.257 9.55149C80.2548 9.55267 80.3866 9.47594 80.3288 9.51199C80.4753 9.41839 80.6127 9.31134 80.7393 9.19224C80.784 9.15 80.8252 9.10418 80.8624 9.05524C80.9269 8.97598 80.9867 8.89302 81.0415 8.80678C81.1531 8.62416 81.2415 8.42835 81.3046 8.22388C81.3334 8.13794 81.3577 8.05057 81.3774 7.96211C81.3829 7.91355 81.3916 7.86542 81.4037 7.81805C81.4457 7.70521 81.3957 7.88395 81.4441 7.93285L81.6528 8.08668C81.692 8.09836 81.7333 8.10106 81.7737 8.0946C81.8141 8.08813 81.8525 8.07265 81.8861 8.04932C81.9108 8.01452 81.9054 8.02029 81.8699 8.06664C81.8286 8.12118 81.7907 8.1783 81.7566 8.23764C81.6818 8.37733 81.6141 8.52074 81.5538 8.6673C81.4292 8.97899 81.2717 9.27649 81.0839 9.55473C80.8999 9.83616 80.6318 10.0523 80.3177 10.1724C80.0037 10.2925 79.6597 10.3104 79.3349 10.2235C79.213 10.175 79.115 10.0805 79.0622 9.96036C79.0093 9.84026 79.0058 9.7042 79.0524 9.58154C79.1022 9.46066 79.1969 9.36374 79.3165 9.31109C79.4362 9.25843 79.5716 9.25412 79.6943 9.29906Z" fill="#2F2E41"/>
</g>
<defs>
<clipPath id="clip0_5_2058">
<rect width="285.481" height="190" fill="white"/>
</clipPath>
</defs>
</svg>
