<svg width="20" height="20" viewBox="0 0 20 20" fill="none" xmlns="http://www.w3.org/2000/svg">
<g clip-path="url(#clip0_8_1876)">
<path d="M14.2916 8.37499C13.6781 8.38709 13.0778 8.19673 12.5833 7.83333C12.4907 7.77176 12.3868 7.72935 12.2775 7.70858C12.1683 7.68782 12.056 7.68912 11.9473 7.71242C11.8386 7.73572 11.7356 7.78054 11.6445 7.84424C11.5533 7.90794 11.4759 7.98923 11.4166 8.08333C11.3509 8.16148 11.3019 8.25222 11.2725 8.34999C11.2431 8.44776 11.234 8.55051 11.2457 8.65194C11.2574 8.75336 11.2897 8.85133 11.3406 8.93984C11.3914 9.02834 11.4599 9.10553 11.5416 9.16666C12.0778 9.54294 12.689 9.79879 13.3333 9.91666V10.8333C13.3333 11.0543 13.4211 11.2663 13.5774 11.4226C13.7337 11.5789 13.9456 11.6667 14.1666 11.6667C14.3877 11.6667 14.5996 11.5789 14.7559 11.4226C14.9122 11.2663 15 11.0543 15 10.8333V9.91666C15.4571 9.84926 15.8882 9.66241 16.25 9.37499C16.5112 9.18325 16.723 8.93209 16.8679 8.64228C17.0128 8.35247 17.0866 8.03233 17.0833 7.70833C17.0833 6.16666 15.6666 5.66666 14.4583 5.41666C13.25 5.16666 13 4.87499 13 4.66666C13 4.45833 13.0833 4.41666 13.2083 4.29166C13.4382 4.16808 13.6977 4.1104 13.9583 4.12499C14.4425 4.1208 14.9183 4.25058 15.3333 4.49999C15.4177 4.56883 15.516 4.61847 15.6215 4.64548C15.7269 4.67248 15.837 4.6762 15.9441 4.65638C16.0511 4.63656 16.1526 4.59366 16.2414 4.53068C16.3302 4.4677 16.4042 4.38614 16.4583 4.29166C16.5297 4.20646 16.5824 4.10717 16.6129 4.00025C16.6434 3.89334 16.651 3.7812 16.6353 3.67114C16.6196 3.56108 16.5809 3.45556 16.5217 3.36146C16.4624 3.26736 16.3841 3.18679 16.2916 3.12499C15.8954 2.88044 15.4576 2.71094 15 2.62499V1.66666C15 1.44565 14.9122 1.23369 14.7559 1.07741C14.5996 0.921126 14.3877 0.833328 14.1666 0.833328C13.9456 0.833328 13.7337 0.921126 13.5774 1.07741C13.4211 1.23369 13.3333 1.44565 13.3333 1.66666V2.58333C12.0833 2.79166 11.25 3.62499 11.25 4.74999C11.25 5.87499 12.625 6.79166 13.9583 7.04166C15.2916 7.29166 15.3333 7.58333 15.3333 7.79166C15.3333 8 14.875 8.37499 14.2916 8.37499Z" fill="#8012DC"/>
<path d="M17.5833 13.2083C17.3519 13.0216 17.0844 12.8846 16.7977 12.8058C16.511 12.7269 16.2111 12.7079 15.9167 12.75L11.7917 13.5C11.7938 13.2431 11.7432 12.9884 11.6428 12.7519C11.5425 12.5154 11.3946 12.302 11.2083 12.125L8.25 9.16666H2.08333C1.86232 9.16666 1.65036 9.25445 1.49408 9.41073C1.3378 9.56701 1.25 9.77898 1.25 9.99999V13.75C1.25 13.971 1.3378 14.183 1.49408 14.3392C1.65036 14.4955 1.86232 14.5833 2.08333 14.5833H3.45833L8.125 18.375L16.625 16.8333C17.009 16.7583 17.3642 16.5767 17.6498 16.3093C17.9354 16.0418 18.1399 15.6994 18.2399 15.3211C18.3399 14.9428 18.3314 14.544 18.2152 14.1703C18.0991 13.7967 17.8801 13.4633 17.5833 13.2083ZM16.3333 15.2083L8.54167 16.625L4.16667 13V10.8333H7.58333L10.0417 13.2917C10.108 13.358 10.1452 13.4479 10.1452 13.5417C10.1452 13.6354 10.108 13.7254 10.0417 13.7917C9.97536 13.858 9.88544 13.8952 9.79167 13.8952C9.6979 13.8952 9.60797 13.858 9.54167 13.7917L8.08333 12.3333C7.92286 12.213 7.72435 12.1545 7.52426 12.1688C7.32417 12.183 7.13592 12.2689 6.99408 12.4107C6.85223 12.5526 6.76632 12.7408 6.7521 12.9409C6.73788 13.141 6.79631 13.3395 6.91667 13.5L8.375 14.9583C8.55676 15.1498 8.77691 15.3008 9.02103 15.4013C9.26516 15.5018 9.52777 15.5496 9.79167 15.5417C10.0468 15.5405 10.3 15.4983 10.5417 15.4167L16.2083 14.4167C16.326 14.4002 16.4456 14.43 16.5417 14.5C16.5826 14.5365 16.6149 14.5816 16.6365 14.6319C16.6581 14.6823 16.6684 14.7369 16.6667 14.7917C16.6686 14.8891 16.6364 14.9842 16.5754 15.0603C16.5145 15.1365 16.4289 15.1888 16.3333 15.2083Z" fill="#8012DC"/>
</g>
<defs>
<clipPath id="clip0_8_1876">
<rect width="20" height="20" fill="white"/>
</clipPath>
</defs>
</svg>
