<svg width="14" height="14" viewBox="0 0 14 14" fill="none" xmlns="http://www.w3.org/2000/svg">
<path d="M12.5 0H1.5C1.10218 0 0.720644 0.158035 0.43934 0.43934C0.158035 0.720644 0 1.10218 0 1.5V12.5C0 12.8978 0.158035 13.2794 0.43934 13.5607C0.720644 13.842 1.10218 14 1.5 14H12.5C12.8978 14 13.2794 13.842 13.5607 13.5607C13.842 13.2794 14 12.8978 14 12.5V1.5C14 1.10218 13.842 0.720644 13.5607 0.43934C13.2794 0.158035 12.8978 0 12.5 0ZM4.875 2.5C5.14695 2.5 5.41279 2.58064 5.63891 2.73173C5.86503 2.88282 6.04126 3.09756 6.14533 3.34881C6.2494 3.60006 6.27663 3.87653 6.22358 4.14325C6.17053 4.40997 6.03957 4.65497 5.84727 4.84727C5.65497 5.03957 5.40997 5.17053 5.14325 5.22358C4.87652 5.27663 4.60006 5.2494 4.34881 5.14533C4.09756 5.04126 3.88282 4.86503 3.73173 4.63891C3.58064 4.41279 3.5 4.14695 3.5 3.875C3.5 3.51033 3.64487 3.16059 3.90273 2.90273C4.16059 2.64487 4.51033 2.5 4.875 2.5ZM12.4692 10.8702C12.4477 10.9095 12.416 10.9423 12.3774 10.9651C12.3388 10.988 12.2948 11 12.25 11H1.75C1.70552 11 1.66184 10.9882 1.62347 10.9657C1.58509 10.9432 1.55342 10.9108 1.53172 10.872C1.51001 10.8332 1.49906 10.7893 1.49998 10.7448C1.50091 10.7003 1.51369 10.6569 1.537 10.619L3.537 7.369C3.55744 7.33575 3.58537 7.30775 3.61857 7.28723C3.65177 7.26672 3.68932 7.25426 3.72819 7.25086C3.76707 7.24746 3.80621 7.25321 3.84247 7.26764C3.87873 7.28208 3.9111 7.30481 3.937 7.334L5.722 9.34175L8.542 5.11125C8.56544 5.07698 8.59689 5.04893 8.63361 5.02955C8.67033 5.01016 8.71123 5.00002 8.75275 5C8.79435 5.00044 8.83519 5.01126 8.87155 5.03147C8.90792 5.05168 8.93866 5.08065 8.961 5.11575L12.461 10.6158C12.4851 10.6535 12.4985 10.6971 12.5 10.7419C12.5014 10.7866 12.4908 10.831 12.4692 10.8702Z" fill="white"/>
</svg>
