<svg width="20" height="20" viewBox="0 0 20 20" fill="none" xmlns="http://www.w3.org/2000/svg">
<g clip-path="url(#clip0_8_1861)">
<path d="M18.5305 18.5298L20 18.3955L19.2299 11.4302C19.344 10.6058 19.4217 9.7768 19.4627 8.94556C19.5328 7.31962 19.7764 2.15674 15.095 2.15674C10.4115 2.15674 10.5393 6.46735 10.5393 6.46735L10.8808 12.061L10.2307 18.3312L11.6988 18.4655L12.2817 13.9591C12.6361 15.1572 12.9711 16.2609 12.9711 16.2609L12.5353 18.9091H18.049L17.4282 16.1687C17.4282 16.1687 17.6203 14.9007 17.8511 13.5655L18.5305 18.5298ZM16.1673 9.89284V11.208H16.1744L16.6466 11.4316L15.1643 14.1027L13.7119 11.3495L14.0834 11.2559V9.84712C12.5682 9.37134 11.4609 7.97043 11.4609 6.29733C11.4609 6.17088 11.4845 6.05158 11.4973 5.92871C12.5303 5.85798 16.0108 5.53722 16.1008 4.40563C16.4337 5.01929 18.1911 6.56165 18.9027 6.67953C18.8247 7.42877 18.5216 8.13682 18.0333 8.71042C17.545 9.28402 16.8945 9.69626 16.1673 9.89284Z" fill="#47463C"/>
<path d="M6.34876 10.3629C6.34876 10.3629 5.85084 11.8924 4.47993 11.9731C3.10759 12.0517 2.58894 10.3629 2.58894 10.3629H0.202172L0 17.4554H1.24946L1.31519 18.8134H1.50664V18.9084H7.63466V18.8134H7.86898L7.8697 17.3068L9.17774 17.2846L9.01629 10.3636H6.34876V10.3629Z" fill="#47463C"/>
<path d="M1.07162 5.11787C1.02661 5.26718 0.980175 5.4172 0.953028 5.57294C0.870507 6.06936 0.891781 6.5775 1.01551 7.06529C1.13924 7.55307 1.36273 8.00992 1.67189 8.40699C1.98105 8.80407 2.36916 9.13274 2.81172 9.37229C3.25429 9.61183 3.7417 9.75704 4.24321 9.79874C4.74471 9.84045 5.24941 9.77775 5.72547 9.6146C6.20152 9.45145 6.63859 9.19139 7.00909 8.85084C7.37959 8.51028 7.67548 8.09663 7.87808 7.63598C8.08068 7.17533 8.18559 6.67769 8.1862 6.17445C8.1862 5.77225 8.10619 5.3922 7.98689 5.03L8.72557 4.00986L7.40109 3.54336L7.6597 2.18888L6.0409 2.65109L5.29722 1.09158L3.91559 2.5325L2.84544 1.29304L2.3418 2.93113L0.623695 2.36748L1.27093 3.81554L0.020752 4.16631L1.07162 5.11787Z" fill="#47463C"/>
</g>
<defs>
<clipPath id="clip0_8_1861">
<rect width="20" height="20" fill="white"/>
</clipPath>
</defs>
</svg>
